STARTFONT 2.1
FONT -memleek-leggie-bold-r-normal--12----c-60-CP437-0
SIZE 12 75 75
FONTBOUNDINGBOX 6 12 0 -2
COMMENT "Generated by fontforge, http://fontforge.sourceforge.net"
STARTPROPERTIES 18
AVERAGE_WIDTH 60
CAP_HEIGHT 7
CHARSET_ENCODING "0"
CHARSET_REGISTRY "CP437"
COMMENT "Please visit https://memleek.org/leggie"
COPYRIGHT "2012-2018 W. Kerr. Licensed under CC BY 4.0"
DEFAULT_CHAR 65535
FAMILY_NAME "leggie"
FONT "leggie"
FONT_ASCENT 10
FONT_DESCENT 2
FOUNDRY "memleek"
PIXEL_SIZE 12
SETWIDTH_NAME "Normal"
SLANT "R"
SPACING "C"
WEIGHT_NAME "Bold"
X_HEIGHT 5
ENDPROPERTIES
CHARS 554
STARTCHAR SPACE
ENCODING 32
SWIDTH 480 0
DWIDTH 6 0
BBX 1 1 5 -2
BITMAP
00
ENDCHAR
STARTCHAR EXCLAMATION
ENCODING 33
SWIDTH 480 0
DWIDTH 6 0
BBX 2 7 2 0
BITMAP
C0
C0
C0
C0
00
C0
C0
ENDCHAR
STARTCHAR QUOTATION
ENCODING 34
SWIDTH 480 0
DWIDTH 6 0
BBX 6 3 0 5
BITMAP
CC
CC
CC
ENDCHAR
STARTCHAR NUMBER
ENCODING 35
SWIDTH 480 0
DWIDTH 6 0
BBX 6 7 0 0
BITMAP
CC
CC
FC
CC
FC
CC
CC
ENDCHAR
STARTCHAR DOLLAR
ENCODING 36
SWIDTH 480 0
DWIDTH 6 0
BBX 6 9 0 -1
BITMAP
18
7C
C0
C0
78
0C
0C
F8
60
ENDCHAR
STARTCHAR PERCENT
ENCODING 37
SWIDTH 480 0
DWIDTH 6 0
BBX 6 7 0 0
BITMAP
70
DC
78
30
78
EC
38
ENDCHAR
STARTCHAR AMPERSAND
ENCODING 38
SWIDTH 480 0
DWIDTH 6 0
BBX 6 7 0 0
BITMAP
70
D8
D8
70
CC
D8
6C
ENDCHAR
STARTCHAR APOSTROPHE
ENCODING 39
SWIDTH 480 0
DWIDTH 6 0
BBX 2 3 2 5
BITMAP
C0
C0
C0
ENDCHAR
STARTCHAR LEFT
ENCODING 40
SWIDTH 480 0
DWIDTH 6 0
BBX 3 11 2 -2
BITMAP
60
C0
C0
C0
C0
C0
C0
C0
C0
C0
60
ENDCHAR
STARTCHAR RIGHT
ENCODING 41
SWIDTH 480 0
DWIDTH 6 0
BBX 3 11 1 -2
BITMAP
C0
60
60
60
60
60
60
60
60
60
C0
ENDCHAR
STARTCHAR ASTERISK
ENCODING 42
SWIDTH 480 0
DWIDTH 6 0
BBX 6 5 0 1
BITMAP
CC
78
FC
78
CC
ENDCHAR
STARTCHAR PLUS
ENCODING 43
SWIDTH 480 0
DWIDTH 6 0
BBX 6 5 0 1
BITMAP
30
30
FC
30
30
ENDCHAR
STARTCHAR COMMA
ENCODING 44
SWIDTH 480 0
DWIDTH 6 0
BBX 3 3 1 -1
BITMAP
60
60
C0
ENDCHAR
STARTCHAR HYPHEN-MINUS
ENCODING 45
SWIDTH 480 0
DWIDTH 6 0
BBX 6 2 0 2
BITMAP
FC
FC
ENDCHAR
STARTCHAR FULL
ENCODING 46
SWIDTH 480 0
DWIDTH 6 0
BBX 2 2 2 0
BITMAP
C0
C0
ENDCHAR
STARTCHAR SOLIDUS
ENCODING 47
SWIDTH 480 0
DWIDTH 6 0
BBX 6 10 0 -2
BITMAP
0C
0C
18
18
30
30
60
60
C0
C0
ENDCHAR
STARTCHAR DIGIT
ENCODING 48
SWIDTH 480 0
DWIDTH 6 0
BBX 6 7 0 0
BITMAP
78
CC
DC
EC
CC
CC
78
ENDCHAR
STARTCHAR DIGIT
ENCODING 49
SWIDTH 480 0
DWIDTH 6 0
BBX 4 7 1 0
BITMAP
30
70
F0
30
30
30
30
ENDCHAR
STARTCHAR DIGIT
ENCODING 50
SWIDTH 480 0
DWIDTH 6 0
BBX 6 7 0 0
BITMAP
F8
0C
0C
18
30
60
FC
ENDCHAR
STARTCHAR DIGIT
ENCODING 51
SWIDTH 480 0
DWIDTH 6 0
BBX 6 7 0 0
BITMAP
F8
0C
0C
38
0C
0C
F8
ENDCHAR
STARTCHAR DIGIT
ENCODING 52
SWIDTH 480 0
DWIDTH 6 0
BBX 6 7 0 0
BITMAP
0C
1C
3C
6C
FC
0C
0C
ENDCHAR
STARTCHAR DIGIT
ENCODING 53
SWIDTH 480 0
DWIDTH 6 0
BBX 6 7 0 0
BITMAP
FC
C0
F8
0C
0C
0C
F8
ENDCHAR
STARTCHAR DIGIT
ENCODING 54
SWIDTH 480 0
DWIDTH 6 0
BBX 6 7 0 0
BITMAP
78
C0
F8
CC
CC
CC
78
ENDCHAR
STARTCHAR DIGIT
ENCODING 55
SWIDTH 480 0
DWIDTH 6 0
BBX 6 7 0 0
BITMAP
FC
0C
0C
18
30
30
30
ENDCHAR
STARTCHAR DIGIT
ENCODING 56
SWIDTH 480 0
DWIDTH 6 0
BBX 6 7 0 0
BITMAP
78
CC
CC
78
CC
CC
78
ENDCHAR
STARTCHAR DIGIT
ENCODING 57
SWIDTH 480 0
DWIDTH 6 0
BBX 6 7 0 0
BITMAP
78
CC
CC
CC
7C
0C
78
ENDCHAR
STARTCHAR COLON
ENCODING 58
SWIDTH 480 0
DWIDTH 6 0
BBX 2 6 2 0
BITMAP
C0
C0
00
00
C0
C0
ENDCHAR
STARTCHAR SEMICOLON
ENCODING 59
SWIDTH 480 0
DWIDTH 6 0
BBX 3 7 1 -1
BITMAP
60
60
00
00
60
60
C0
ENDCHAR
STARTCHAR LESS-THAN
ENCODING 60
SWIDTH 480 0
DWIDTH 6 0
BBX 6 9 0 -1
BITMAP
0C
18
30
60
C0
60
30
18
0C
ENDCHAR
STARTCHAR EQUALS
ENCODING 61
SWIDTH 480 0
DWIDTH 6 0
BBX 6 5 0 1
BITMAP
FC
FC
00
FC
FC
ENDCHAR
STARTCHAR GREATER-THAN
ENCODING 62
SWIDTH 480 0
DWIDTH 6 0
BBX 6 9 0 -1
BITMAP
C0
60
30
18
0C
18
30
60
C0
ENDCHAR
STARTCHAR QUESTION
ENCODING 63
SWIDTH 480 0
DWIDTH 6 0
BBX 6 7 0 0
BITMAP
F8
0C
0C
38
00
30
30
ENDCHAR
STARTCHAR COMMERCIAL
ENCODING 64
SWIDTH 480 0
DWIDTH 6 0
BBX 6 8 0 -1
BITMAP
78
CC
FC
EC
EC
F8
C0
78
ENDCHAR
STARTCHAR LATIN
ENCODING 65
SWIDTH 480 0
DWIDTH 6 0
BBX 6 7 0 0
BITMAP
78
CC
CC
CC
FC
CC
CC
ENDCHAR
STARTCHAR LATIN
ENCODING 66
SWIDTH 480 0
DWIDTH 6 0
BBX 6 7 0 0
BITMAP
F8
CC
CC
F8
CC
CC
F8
ENDCHAR
STARTCHAR LATIN
ENCODING 67
SWIDTH 480 0
DWIDTH 6 0
BBX 6 7 0 0
BITMAP
7C
C0
C0
C0
C0
C0
7C
ENDCHAR
STARTCHAR LATIN
ENCODING 68
SWIDTH 480 0
DWIDTH 6 0
BBX 6 7 0 0
BITMAP
F8
CC
CC
CC
CC
CC
F8
ENDCHAR
STARTCHAR LATIN
ENCODING 69
SWIDTH 480 0
DWIDTH 6 0
BBX 6 7 0 0
BITMAP
FC
C0
C0
F0
C0
C0
FC
ENDCHAR
STARTCHAR LATIN
ENCODING 70
SWIDTH 480 0
DWIDTH 6 0
BBX 6 7 0 0
BITMAP
FC
C0
C0
F0
C0
C0
C0
ENDCHAR
STARTCHAR LATIN
ENCODING 71
SWIDTH 480 0
DWIDTH 6 0
BBX 6 7 0 0
BITMAP
7C
C0
C0
DC
CC
CC
7C
ENDCHAR
STARTCHAR LATIN
ENCODING 72
SWIDTH 480 0
DWIDTH 6 0
BBX 6 7 0 0
BITMAP
CC
CC
CC
FC
CC
CC
CC
ENDCHAR
STARTCHAR LATIN
ENCODING 73
SWIDTH 480 0
DWIDTH 6 0
BBX 4 7 1 0
BITMAP
F0
60
60
60
60
60
F0
ENDCHAR
STARTCHAR LATIN
ENCODING 74
SWIDTH 480 0
DWIDTH 6 0
BBX 6 7 0 0
BITMAP
0C
0C
0C
0C
0C
CC
78
ENDCHAR
STARTCHAR LATIN
ENCODING 75
SWIDTH 480 0
DWIDTH 6 0
BBX 6 7 0 0
BITMAP
CC
D8
F0
E0
F0
D8
CC
ENDCHAR
STARTCHAR LATIN
ENCODING 76
SWIDTH 480 0
DWIDTH 6 0
BBX 6 7 0 0
BITMAP
C0
C0
C0
C0
C0
C0
FC
ENDCHAR
STARTCHAR LATIN
ENCODING 77
SWIDTH 480 0
DWIDTH 6 0
BBX 6 7 0 0
BITMAP
CC
FC
FC
CC
CC
CC
CC
ENDCHAR
STARTCHAR LATIN
ENCODING 78
SWIDTH 480 0
DWIDTH 6 0
BBX 6 7 0 0
BITMAP
CC
CC
EC
FC
DC
CC
CC
ENDCHAR
STARTCHAR LATIN
ENCODING 79
SWIDTH 480 0
DWIDTH 6 0
BBX 6 7 0 0
BITMAP
78
CC
CC
CC
CC
CC
78
ENDCHAR
STARTCHAR LATIN
ENCODING 80
SWIDTH 480 0
DWIDTH 6 0
BBX 6 7 0 0
BITMAP
F8
CC
CC
CC
F8
C0
C0
ENDCHAR
STARTCHAR LATIN
ENCODING 81
SWIDTH 480 0
DWIDTH 6 0
BBX 6 7 0 0
BITMAP
78
CC
CC
CC
CC
D8
6C
ENDCHAR
STARTCHAR LATIN
ENCODING 82
SWIDTH 480 0
DWIDTH 6 0
BBX 6 7 0 0
BITMAP
F8
CC
CC
CC
F8
D8
CC
ENDCHAR
STARTCHAR LATIN
ENCODING 83
SWIDTH 480 0
DWIDTH 6 0
BBX 6 7 0 0
BITMAP
7C
C0
C0
78
0C
0C
F8
ENDCHAR
STARTCHAR LATIN
ENCODING 84
SWIDTH 480 0
DWIDTH 6 0
BBX 6 7 0 0
BITMAP
FC
30
30
30
30
30
30
ENDCHAR
STARTCHAR LATIN
ENCODING 85
SWIDTH 480 0
DWIDTH 6 0
BBX 6 7 0 0
BITMAP
CC
CC
CC
CC
CC
CC
78
ENDCHAR
STARTCHAR LATIN
ENCODING 86
SWIDTH 480 0
DWIDTH 6 0
BBX 6 7 0 0
BITMAP
CC
CC
CC
CC
78
78
30
ENDCHAR
STARTCHAR LATIN
ENCODING 87
SWIDTH 480 0
DWIDTH 6 0
BBX 6 7 0 0
BITMAP
CC
CC
CC
CC
FC
FC
CC
ENDCHAR
STARTCHAR LATIN
ENCODING 88
SWIDTH 480 0
DWIDTH 6 0
BBX 6 7 0 0
BITMAP
CC
CC
78
30
78
CC
CC
ENDCHAR
STARTCHAR LATIN
ENCODING 89
SWIDTH 480 0
DWIDTH 6 0
BBX 6 7 0 0
BITMAP
CC
CC
78
30
30
30
30
ENDCHAR
STARTCHAR LATIN
ENCODING 90
SWIDTH 480 0
DWIDTH 6 0
BBX 6 7 0 0
BITMAP
FC
0C
18
30
60
C0
FC
ENDCHAR
STARTCHAR LEFT
ENCODING 91
SWIDTH 480 0
DWIDTH 6 0
BBX 3 11 2 -2
BITMAP
E0
C0
C0
C0
C0
C0
C0
C0
C0
C0
E0
ENDCHAR
STARTCHAR REVERSE
ENCODING 92
SWIDTH 480 0
DWIDTH 6 0
BBX 6 10 0 -2
BITMAP
C0
C0
60
60
30
30
18
18
0C
0C
ENDCHAR
STARTCHAR RIGHT
ENCODING 93
SWIDTH 480 0
DWIDTH 6 0
BBX 3 11 1 -2
BITMAP
E0
60
60
60
60
60
60
60
60
60
E0
ENDCHAR
STARTCHAR CIRCUMFLEX
ENCODING 94
SWIDTH 480 0
DWIDTH 6 0
BBX 6 3 0 5
BITMAP
30
78
CC
ENDCHAR
STARTCHAR LOW
ENCODING 95
SWIDTH 480 0
DWIDTH 6 0
BBX 6 2 0 -2
BITMAP
FC
FC
ENDCHAR
STARTCHAR GRAVE
ENCODING 96
SWIDTH 480 0
DWIDTH 6 0
BBX 4 3 1 5
BITMAP
C0
60
30
ENDCHAR
STARTCHAR LATIN
ENCODING 97
SWIDTH 480 0
DWIDTH 6 0
BBX 6 5 0 0
BITMAP
78
0C
7C
CC
7C
ENDCHAR
STARTCHAR LATIN
ENCODING 98
SWIDTH 480 0
DWIDTH 6 0
BBX 6 8 0 0
BITMAP
C0
C0
C0
F8
CC
CC
CC
F8
ENDCHAR
STARTCHAR LATIN
ENCODING 99
SWIDTH 480 0
DWIDTH 6 0
BBX 6 5 0 0
BITMAP
7C
C0
C0
C0
7C
ENDCHAR
STARTCHAR LATIN
ENCODING 100
SWIDTH 480 0
DWIDTH 6 0
BBX 6 8 0 0
BITMAP
0C
0C
0C
7C
CC
CC
CC
7C
ENDCHAR
STARTCHAR LATIN
ENCODING 101
SWIDTH 480 0
DWIDTH 6 0
BBX 6 5 0 0
BITMAP
78
CC
FC
C0
78
ENDCHAR
STARTCHAR LATIN
ENCODING 102
SWIDTH 480 0
DWIDTH 6 0
BBX 4 8 1 0
BITMAP
70
C0
C0
E0
C0
C0
C0
C0
ENDCHAR
STARTCHAR LATIN
ENCODING 103
SWIDTH 480 0
DWIDTH 6 0
BBX 6 7 0 -2
BITMAP
7C
CC
CC
CC
7C
0C
78
ENDCHAR
STARTCHAR LATIN
ENCODING 104
SWIDTH 480 0
DWIDTH 6 0
BBX 6 8 0 0
BITMAP
C0
C0
C0
F8
CC
CC
CC
CC
ENDCHAR
STARTCHAR LATIN
ENCODING 105
SWIDTH 480 0
DWIDTH 6 0
BBX 3 8 1 0
BITMAP
60
60
00
E0
60
60
60
60
ENDCHAR
STARTCHAR LATIN
ENCODING 106
SWIDTH 480 0
DWIDTH 6 0
BBX 3 10 1 -2
BITMAP
60
60
00
E0
60
60
60
60
60
C0
ENDCHAR
STARTCHAR LATIN
ENCODING 107
SWIDTH 480 0
DWIDTH 6 0
BBX 6 8 0 0
BITMAP
C0
C0
C0
CC
D8
F0
D8
CC
ENDCHAR
STARTCHAR LATIN
ENCODING 108
SWIDTH 480 0
DWIDTH 6 0
BBX 4 8 1 0
BITMAP
C0
C0
C0
C0
C0
C0
C0
70
ENDCHAR
STARTCHAR LATIN
ENCODING 109
SWIDTH 480 0
DWIDTH 6 0
BBX 6 5 0 0
BITMAP
C8
FC
FC
FC
CC
ENDCHAR
STARTCHAR LATIN
ENCODING 110
SWIDTH 480 0
DWIDTH 6 0
BBX 6 5 0 0
BITMAP
F8
CC
CC
CC
CC
ENDCHAR
STARTCHAR LATIN
ENCODING 111
SWIDTH 480 0
DWIDTH 6 0
BBX 6 5 0 0
BITMAP
78
CC
CC
CC
78
ENDCHAR
STARTCHAR LATIN
ENCODING 112
SWIDTH 480 0
DWIDTH 6 0
BBX 6 7 0 -2
BITMAP
F8
CC
CC
CC
F8
C0
C0
ENDCHAR
STARTCHAR LATIN
ENCODING 113
SWIDTH 480 0
DWIDTH 6 0
BBX 6 7 0 -2
BITMAP
7C
CC
CC
CC
7C
0C
0C
ENDCHAR
STARTCHAR LATIN
ENCODING 114
SWIDTH 480 0
DWIDTH 6 0
BBX 6 5 0 0
BITMAP
DC
F0
C0
C0
C0
ENDCHAR
STARTCHAR LATIN
ENCODING 115
SWIDTH 480 0
DWIDTH 6 0
BBX 6 5 0 0
BITMAP
7C
C0
78
0C
F8
ENDCHAR
STARTCHAR LATIN
ENCODING 116
SWIDTH 480 0
DWIDTH 6 0
BBX 5 8 1 0
BITMAP
60
60
60
F0
60
60
60
38
ENDCHAR
STARTCHAR LATIN
ENCODING 117
SWIDTH 480 0
DWIDTH 6 0
BBX 6 5 0 0
BITMAP
CC
CC
CC
CC
7C
ENDCHAR
STARTCHAR LATIN
ENCODING 118
SWIDTH 480 0
DWIDTH 6 0
BBX 6 5 0 0
BITMAP
CC
CC
78
78
30
ENDCHAR
STARTCHAR LATIN
ENCODING 119
SWIDTH 480 0
DWIDTH 6 0
BBX 6 5 0 0
BITMAP
CC
CC
FC
FC
CC
ENDCHAR
STARTCHAR LATIN
ENCODING 120
SWIDTH 480 0
DWIDTH 6 0
BBX 6 5 0 0
BITMAP
CC
78
30
78
CC
ENDCHAR
STARTCHAR LATIN
ENCODING 121
SWIDTH 480 0
DWIDTH 6 0
BBX 6 7 0 -2
BITMAP
CC
CC
CC
CC
7C
0C
78
ENDCHAR
STARTCHAR LATIN
ENCODING 122
SWIDTH 480 0
DWIDTH 6 0
BBX 6 5 0 0
BITMAP
FC
18
30
60
FC
ENDCHAR
STARTCHAR LEFT
ENCODING 123
SWIDTH 480 0
DWIDTH 6 0
BBX 4 11 1 -2
BITMAP
30
60
60
60
60
C0
60
60
60
60
30
ENDCHAR
STARTCHAR VERTICAL
ENCODING 124
SWIDTH 480 0
DWIDTH 6 0
BBX 2 12 2 -2
BITMAP
C0
C0
C0
C0
C0
C0
C0
C0
C0
C0
C0
C0
ENDCHAR
STARTCHAR RIGHT
ENCODING 125
SWIDTH 480 0
DWIDTH 6 0
BBX 4 11 1 -2
BITMAP
C0
60
60
60
60
30
60
60
60
60
C0
ENDCHAR
STARTCHAR TILDE
ENCODING 126
SWIDTH 480 0
DWIDTH 6 0
BBX 6 2 0 2
BITMAP
6C
D8
ENDCHAR
STARTCHAR LATIN
ENCODING 128
SWIDTH 480 0
DWIDTH 6 0
BBX 6 9 0 -2
BITMAP
7C
C0
C0
C0
C0
C0
7C
18
30
ENDCHAR
STARTCHAR LATIN
ENCODING 129
SWIDTH 480 0
DWIDTH 6 0
BBX 6 8 0 0
BITMAP
CC
CC
00
CC
CC
CC
CC
7C
ENDCHAR
STARTCHAR LATIN
ENCODING 130
SWIDTH 480 0
DWIDTH 6 0
BBX 6 8 0 0
BITMAP
18
30
00
78
CC
FC
C0
78
ENDCHAR
STARTCHAR LATIN
ENCODING 131
SWIDTH 480 0
DWIDTH 6 0
BBX 6 8 0 0
BITMAP
30
78
00
78
0C
7C
CC
7C
ENDCHAR
STARTCHAR LATIN
ENCODING 132
SWIDTH 480 0
DWIDTH 6 0
BBX 6 8 0 0
BITMAP
6C
6C
00
78
0C
7C
CC
7C
ENDCHAR
STARTCHAR LATIN
ENCODING 133
SWIDTH 480 0
DWIDTH 6 0
BBX 6 8 0 0
BITMAP
60
30
00
78
0C
7C
CC
7C
ENDCHAR
STARTCHAR LATIN
ENCODING 134
SWIDTH 480 0
DWIDTH 6 0
BBX 6 9 0 0
BITMAP
38
6C
38
00
78
0C
7C
CC
7C
ENDCHAR
STARTCHAR LATIN
ENCODING 135
SWIDTH 480 0
DWIDTH 6 0
BBX 6 7 0 -2
BITMAP
7C
C0
C0
C0
7C
18
30
ENDCHAR
STARTCHAR LATIN
ENCODING 136
SWIDTH 480 0
DWIDTH 6 0
BBX 6 8 0 0
BITMAP
30
78
00
78
CC
FC
C0
78
ENDCHAR
STARTCHAR LATIN
ENCODING 137
SWIDTH 480 0
DWIDTH 6 0
BBX 6 8 0 0
BITMAP
CC
CC
00
78
CC
FC
C0
78
ENDCHAR
STARTCHAR LATIN
ENCODING 138
SWIDTH 480 0
DWIDTH 6 0
BBX 6 8 0 0
BITMAP
60
30
00
78
CC
FC
C0
78
ENDCHAR
STARTCHAR LATIN
ENCODING 139
SWIDTH 480 0
DWIDTH 6 0
BBX 6 8 0 0
BITMAP
CC
CC
00
70
30
30
30
30
ENDCHAR
STARTCHAR LATIN
ENCODING 140
SWIDTH 480 0
DWIDTH 6 0
BBX 4 8 1 0
BITMAP
60
F0
00
E0
60
60
60
60
ENDCHAR
STARTCHAR LATIN
ENCODING 141
SWIDTH 480 0
DWIDTH 6 0
BBX 3 8 1 0
BITMAP
C0
60
00
E0
60
60
60
60
ENDCHAR
STARTCHAR LATIN
ENCODING 142
SWIDTH 480 0
DWIDTH 6 0
BBX 6 10 0 0
BITMAP
CC
CC
00
78
CC
CC
CC
FC
CC
CC
ENDCHAR
STARTCHAR LATIN
ENCODING 143
SWIDTH 480 0
DWIDTH 6 0
BBX 6 10 0 0
BITMAP
78
CC
78
78
CC
CC
CC
FC
CC
CC
ENDCHAR
STARTCHAR LATIN
ENCODING 144
SWIDTH 480 0
DWIDTH 6 0
BBX 6 10 0 0
BITMAP
18
30
00
FC
C0
C0
F0
C0
C0
FC
ENDCHAR
STARTCHAR LATIN
ENCODING 145
SWIDTH 480 0
DWIDTH 6 0
BBX 6 5 0 0
BITMAP
F8
34
7C
D8
7C
ENDCHAR
STARTCHAR LATIN
ENCODING 146
SWIDTH 480 0
DWIDTH 6 0
BBX 6 7 0 0
BITMAP
7C
D8
D8
DC
F8
D8
DC
ENDCHAR
STARTCHAR LATIN
ENCODING 147
SWIDTH 480 0
DWIDTH 6 0
BBX 6 8 0 0
BITMAP
30
78
00
78
CC
CC
CC
78
ENDCHAR
STARTCHAR LATIN
ENCODING 148
SWIDTH 480 0
DWIDTH 6 0
BBX 6 8 0 0
BITMAP
CC
CC
00
78
CC
CC
CC
78
ENDCHAR
STARTCHAR LATIN
ENCODING 149
SWIDTH 480 0
DWIDTH 6 0
BBX 6 8 0 0
BITMAP
60
30
00
78
CC
CC
CC
78
ENDCHAR
STARTCHAR LATIN
ENCODING 150
SWIDTH 480 0
DWIDTH 6 0
BBX 6 8 0 0
BITMAP
30
78
00
CC
CC
CC
CC
7C
ENDCHAR
STARTCHAR LATIN
ENCODING 151
SWIDTH 480 0
DWIDTH 6 0
BBX 6 8 0 0
BITMAP
60
30
00
CC
CC
CC
CC
7C
ENDCHAR
STARTCHAR LATIN
ENCODING 152
SWIDTH 480 0
DWIDTH 6 0
BBX 6 10 0 -2
BITMAP
CC
CC
00
CC
CC
CC
CC
7C
0C
78
ENDCHAR
STARTCHAR LATIN
ENCODING 153
SWIDTH 480 0
DWIDTH 6 0
BBX 6 10 0 0
BITMAP
CC
CC
00
78
CC
CC
CC
CC
CC
78
ENDCHAR
STARTCHAR LATIN
ENCODING 154
SWIDTH 480 0
DWIDTH 6 0
BBX 6 10 0 0
BITMAP
CC
CC
00
CC
CC
CC
CC
CC
CC
78
ENDCHAR
STARTCHAR CENT
ENCODING 155
SWIDTH 480 0
DWIDTH 6 0
BBX 6 7 0 -1
BITMAP
18
7C
C0
C0
C0
7C
30
ENDCHAR
STARTCHAR POUND
ENCODING 156
SWIDTH 480 0
DWIDTH 6 0
BBX 6 7 0 0
BITMAP
38
60
60
F0
60
60
FC
ENDCHAR
STARTCHAR YEN
ENCODING 157
SWIDTH 480 0
DWIDTH 6 0
BBX 6 7 0 0
BITMAP
CC
CC
78
30
78
30
30
ENDCHAR
STARTCHAR LATIN
ENCODING 160
SWIDTH 480 0
DWIDTH 6 0
BBX 6 8 0 0
BITMAP
18
30
00
78
0C
7C
CC
7C
ENDCHAR
STARTCHAR LATIN
ENCODING 161
SWIDTH 480 0
DWIDTH 6 0
BBX 4 8 1 0
BITMAP
30
60
00
E0
60
60
60
60
ENDCHAR
STARTCHAR LATIN
ENCODING 162
SWIDTH 480 0
DWIDTH 6 0
BBX 6 8 0 0
BITMAP
18
30
00
78
CC
CC
CC
78
ENDCHAR
STARTCHAR LATIN
ENCODING 163
SWIDTH 480 0
DWIDTH 6 0
BBX 6 8 0 0
BITMAP
18
30
00
CC
CC
CC
CC
7C
ENDCHAR
STARTCHAR LATIN
ENCODING 164
SWIDTH 480 0
DWIDTH 6 0
BBX 6 8 0 0
BITMAP
6C
D8
00
F8
CC
CC
CC
CC
ENDCHAR
STARTCHAR LATIN
ENCODING 165
SWIDTH 480 0
DWIDTH 6 0
BBX 6 10 0 0
BITMAP
6C
D8
00
CC
CC
EC
FC
DC
CC
CC
ENDCHAR
STARTCHAR FEMININE
ENCODING 166
SWIDTH 480 0
DWIDTH 6 0
BBX 6 5 0 3
BITMAP
78
0C
7C
CC
7C
ENDCHAR
STARTCHAR MASCULINE
ENCODING 167
SWIDTH 480 0
DWIDTH 6 0
BBX 6 5 0 3
BITMAP
78
CC
CC
CC
78
ENDCHAR
STARTCHAR INVERTED
ENCODING 168
SWIDTH 480 0
DWIDTH 6 0
BBX 6 7 0 -2
BITMAP
30
30
00
70
C0
C0
7C
ENDCHAR
STARTCHAR NOT
ENCODING 170
SWIDTH 480 0
DWIDTH 6 0
BBX 6 3 0 2
BITMAP
FC
FC
0C
ENDCHAR
STARTCHAR VULGAR
ENCODING 171
SWIDTH 480 0
DWIDTH 6 0
BBX 6 12 0 -2
BITMAP
20
60
E0
60
60
60
78
0C
0C
18
30
7C
ENDCHAR
STARTCHAR VULGAR
ENCODING 172
SWIDTH 480 0
DWIDTH 6 0
BBX 6 12 0 -2
BITMAP
20
60
E0
60
60
64
6C
1C
2C
7C
0C
0C
ENDCHAR
STARTCHAR INVERTED
ENCODING 173
SWIDTH 480 0
DWIDTH 6 0
BBX 2 7 2 -2
BITMAP
C0
C0
00
C0
C0
C0
C0
ENDCHAR
STARTCHAR LEFT-POINTING
ENCODING 174
SWIDTH 480 0
DWIDTH 6 0
BBX 6 5 0 1
BITMAP
34
6C
D8
6C
34
ENDCHAR
STARTCHAR RIGHT-POINTING
ENCODING 175
SWIDTH 480 0
DWIDTH 6 0
BBX 6 5 0 1
BITMAP
B0
D8
6C
D8
B0
ENDCHAR
STARTCHAR GREEK
ENCODING 224
SWIDTH 480 0
DWIDTH 6 0
BBX 6 5 0 0
BITMAP
6C
D8
D8
D8
6C
ENDCHAR
STARTCHAR LATIN
ENCODING 225
SWIDTH 480 0
DWIDTH 6 0
BBX 6 8 0 0
BITMAP
70
D8
D8
F0
D8
CC
EC
D8
ENDCHAR
STARTCHAR GREEK
ENCODING 226
SWIDTH 480 0
DWIDTH 6 0
BBX 6 7 0 0
BITMAP
FC
C0
C0
C0
C0
C0
C0
ENDCHAR
STARTCHAR GREEK
ENCODING 227
SWIDTH 480 0
DWIDTH 6 0
BBX 6 5 0 0
BITMAP
FC
6C
6C
6C
CC
ENDCHAR
STARTCHAR GREEK
ENCODING 228
SWIDTH 480 0
DWIDTH 6 0
BBX 6 7 0 0
BITMAP
FC
C0
60
30
60
C0
FC
ENDCHAR
STARTCHAR GREEK
ENCODING 229
SWIDTH 480 0
DWIDTH 6 0
BBX 6 5 0 0
BITMAP
7C
D8
CC
CC
78
ENDCHAR
STARTCHAR MICRO
ENCODING 230
SWIDTH 480 0
DWIDTH 6 0
BBX 6 7 0 -2
BITMAP
CC
CC
CC
CC
F8
C0
C0
ENDCHAR
STARTCHAR GREEK
ENCODING 231
SWIDTH 480 0
DWIDTH 6 0
BBX 6 5 0 0
BITMAP
FC
30
30
30
18
ENDCHAR
STARTCHAR GREEK
ENCODING 232
SWIDTH 480 0
DWIDTH 6 0
BBX 6 7 0 0
BITMAP
30
78
FC
B4
FC
78
30
ENDCHAR
STARTCHAR GREEK
ENCODING 233
SWIDTH 480 0
DWIDTH 6 0
BBX 6 7 0 0
BITMAP
78
CC
CC
FC
CC
CC
78
ENDCHAR
STARTCHAR GREEK
ENCODING 234
SWIDTH 480 0
DWIDTH 6 0
BBX 6 7 0 0
BITMAP
78
CC
CC
CC
CC
78
FC
ENDCHAR
STARTCHAR GREEK
ENCODING 235
SWIDTH 480 0
DWIDTH 6 0
BBX 6 8 0 0
BITMAP
78
C0
60
78
CC
CC
CC
78
ENDCHAR
STARTCHAR GREEK
ENCODING 237
SWIDTH 480 0
DWIDTH 6 0
BBX 6 7 0 -2
BITMAP
18
BC
B4
FC
78
30
30
ENDCHAR
STARTCHAR GREEK
ENCODING 238
SWIDTH 480 0
DWIDTH 6 0
BBX 6 5 0 0
BITMAP
7C
C0
70
C0
7C
ENDCHAR
STARTCHAR PLUS-MINUS
ENCODING 241
SWIDTH 480 0
DWIDTH 6 0
BBX 6 7 0 0
BITMAP
30
30
FC
30
30
00
FC
ENDCHAR
STARTCHAR DIVISION
ENCODING 246
SWIDTH 480 0
DWIDTH 6 0
BBX 6 8 0 -1
BITMAP
30
30
00
FC
FC
00
30
30
ENDCHAR
STARTCHAR DEGREE
ENCODING 248
SWIDTH 480 0
DWIDTH 6 0
BBX 5 3 1 4
BITMAP
70
D8
70
ENDCHAR
STARTCHAR MIDDLE
ENCODING 250
SWIDTH 480 0
DWIDTH 6 0
BBX 2 2 2 3
BITMAP
C0
C0
ENDCHAR
STARTCHAR SUPERSCRIPT
ENCODING 253
SWIDTH 480 0
DWIDTH 6 0
BBX 6 7 0 3
BITMAP
F8
0C
0C
18
30
60
FC
ENDCHAR
STARTCHAR NO-BREAK
ENCODING 255
SWIDTH 480 0
DWIDTH 6 0
BBX 1 1 5 -2
BITMAP
00
ENDCHAR
STARTCHAR CURRENCY
ENCODING -1
SWIDTH 480 0
DWIDTH 6 0
BBX 6 5 0 1
BITMAP
CC
78
48
78
CC
ENDCHAR
STARTCHAR BROKEN
ENCODING -1
SWIDTH 480 0
DWIDTH 6 0
BBX 2 12 2 -2
BITMAP
C0
C0
C0
C0
C0
00
00
C0
C0
C0
C0
C0
ENDCHAR
STARTCHAR SECTION
ENCODING -1
SWIDTH 480 0
DWIDTH 6 0
BBX 6 11 0 -2
BITMAP
7C
C0
C0
78
CC
CC
CC
78
0C
0C
F8
ENDCHAR
STARTCHAR DIAERESIS
ENCODING -1
SWIDTH 480 0
DWIDTH 6 0
BBX 6 2 0 8
BITMAP
CC
CC
ENDCHAR
STARTCHAR COPYRIGHT
ENCODING -1
SWIDTH 480 0
DWIDTH 6 0
BBX 6 8 0 -1
BITMAP
78
CC
FC
EC
EC
FC
CC
78
ENDCHAR
STARTCHAR SOFT
ENCODING -1
SWIDTH 480 0
DWIDTH 6 0
BBX 4 2 1 3
BITMAP
F0
F0
ENDCHAR
STARTCHAR REGISTERED
ENCODING -1
SWIDTH 480 0
DWIDTH 6 0
BBX 6 8 0 2
BITMAP
78
CC
EC
DC
EC
DC
CC
78
ENDCHAR
STARTCHAR MACRON
ENCODING -1
SWIDTH 480 0
DWIDTH 6 0
BBX 6 2 0 7
BITMAP
FC
FC
ENDCHAR
STARTCHAR SUPERSCRIPT
ENCODING -1
SWIDTH 480 0
DWIDTH 6 0
BBX 6 7 0 3
BITMAP
F8
0C
0C
38
0C
0C
F8
ENDCHAR
STARTCHAR ACUTE
ENCODING -1
SWIDTH 480 0
DWIDTH 6 0
BBX 4 3 1 5
BITMAP
30
60
C0
ENDCHAR
STARTCHAR PILCROW
ENCODING -1
SWIDTH 480 0
DWIDTH 6 0
BBX 6 8 0 0
BITMAP
7C
FC
FC
FC
6C
6C
6C
6C
ENDCHAR
STARTCHAR CEDILLA
ENCODING -1
SWIDTH 480 0
DWIDTH 6 0
BBX 3 2 1 -2
BITMAP
60
C0
ENDCHAR
STARTCHAR SUPERSCRIPT
ENCODING -1
SWIDTH 480 0
DWIDTH 6 0
BBX 4 7 1 3
BITMAP
30
70
F0
30
30
30
30
ENDCHAR
STARTCHAR VULGAR
ENCODING -1
SWIDTH 480 0
DWIDTH 6 0
BBX 6 11 0 -2
BITMAP
F0
18
70
18
18
FC
1C
2C
7C
0C
0C
ENDCHAR
STARTCHAR LATIN
ENCODING -1
SWIDTH 480 0
DWIDTH 6 0
BBX 6 10 0 0
BITMAP
60
30
00
78
CC
CC
CC
FC
CC
CC
ENDCHAR
STARTCHAR LATIN
ENCODING -1
SWIDTH 480 0
DWIDTH 6 0
BBX 6 10 0 0
BITMAP
18
30
00
78
CC
CC
CC
FC
CC
CC
ENDCHAR
STARTCHAR LATIN
ENCODING -1
SWIDTH 480 0
DWIDTH 6 0
BBX 6 10 0 0
BITMAP
30
78
00
78
CC
CC
CC
FC
CC
CC
ENDCHAR
STARTCHAR LATIN
ENCODING -1
SWIDTH 480 0
DWIDTH 6 0
BBX 6 10 0 0
BITMAP
6C
D8
00
78
CC
CC
CC
FC
CC
CC
ENDCHAR
STARTCHAR LATIN
ENCODING -1
SWIDTH 480 0
DWIDTH 6 0
BBX 6 10 0 0
BITMAP
60
30
00
FC
C0
C0
F0
C0
C0
FC
ENDCHAR
STARTCHAR LATIN
ENCODING -1
SWIDTH 480 0
DWIDTH 6 0
BBX 6 10 0 0
BITMAP
30
78
00
FC
C0
C0
F0
C0
C0
FC
ENDCHAR
STARTCHAR LATIN
ENCODING -1
SWIDTH 480 0
DWIDTH 6 0
BBX 6 10 0 0
BITMAP
CC
CC
00
FC
C0
C0
F0
C0
C0
FC
ENDCHAR
STARTCHAR LATIN
ENCODING -1
SWIDTH 480 0
DWIDTH 6 0
BBX 4 10 1 0
BITMAP
C0
60
00
F0
60
60
60
60
60
F0
ENDCHAR
STARTCHAR LATIN
ENCODING -1
SWIDTH 480 0
DWIDTH 6 0
BBX 4 10 1 0
BITMAP
30
60
00
F0
60
60
60
60
60
F0
ENDCHAR
STARTCHAR LATIN
ENCODING -1
SWIDTH 480 0
DWIDTH 6 0
BBX 4 10 1 0
BITMAP
60
F0
00
F0
60
60
60
60
60
F0
ENDCHAR
STARTCHAR LATIN
ENCODING -1
SWIDTH 480 0
DWIDTH 6 0
BBX 6 10 0 0
BITMAP
CC
CC
00
78
30
30
30
30
30
78
ENDCHAR
STARTCHAR LATIN
ENCODING -1
SWIDTH 480 0
DWIDTH 6 0
BBX 6 7 0 0
BITMAP
F8
CC
CC
EC
CC
CC
F8
ENDCHAR
STARTCHAR LATIN
ENCODING -1
SWIDTH 480 0
DWIDTH 6 0
BBX 6 10 0 0
BITMAP
60
30
00
78
CC
CC
CC
CC
CC
78
ENDCHAR
STARTCHAR LATIN
ENCODING -1
SWIDTH 480 0
DWIDTH 6 0
BBX 6 10 0 0
BITMAP
18
30
00
78
CC
CC
CC
CC
CC
78
ENDCHAR
STARTCHAR LATIN
ENCODING -1
SWIDTH 480 0
DWIDTH 6 0
BBX 6 10 0 0
BITMAP
30
78
00
78
CC
CC
CC
CC
CC
78
ENDCHAR
STARTCHAR LATIN
ENCODING -1
SWIDTH 480 0
DWIDTH 6 0
BBX 6 10 0 0
BITMAP
6C
D8
00
78
CC
CC
CC
CC
CC
78
ENDCHAR
STARTCHAR MULTIPLICATION
ENCODING -1
SWIDTH 480 0
DWIDTH 6 0
BBX 6 5 0 1
BITMAP
CC
78
30
78
CC
ENDCHAR
STARTCHAR LATIN
ENCODING -1
SWIDTH 480 0
DWIDTH 6 0
BBX 6 7 0 0
BITMAP
7C
CC
DC
FC
EC
CC
F8
ENDCHAR
STARTCHAR LATIN
ENCODING -1
SWIDTH 480 0
DWIDTH 6 0
BBX 6 10 0 0
BITMAP
60
30
00
CC
CC
CC
CC
CC
CC
78
ENDCHAR
STARTCHAR LATIN
ENCODING -1
SWIDTH 480 0
DWIDTH 6 0
BBX 6 10 0 0
BITMAP
18
30
00
CC
CC
CC
CC
CC
CC
78
ENDCHAR
STARTCHAR LATIN
ENCODING -1
SWIDTH 480 0
DWIDTH 6 0
BBX 6 10 0 0
BITMAP
30
78
00
CC
CC
CC
CC
CC
CC
78
ENDCHAR
STARTCHAR LATIN
ENCODING -1
SWIDTH 480 0
DWIDTH 6 0
BBX 6 10 0 0
BITMAP
18
30
00
CC
CC
78
30
30
30
30
ENDCHAR
STARTCHAR LATIN
ENCODING -1
SWIDTH 480 0
DWIDTH 6 0
BBX 6 7 0 0
BITMAP
C0
F8
CC
CC
CC
F8
C0
ENDCHAR
STARTCHAR LATIN
ENCODING -1
SWIDTH 480 0
DWIDTH 6 0
BBX 6 8 0 0
BITMAP
6C
D8
00
78
0C
7C
CC
7C
ENDCHAR
STARTCHAR LATIN
ENCODING -1
SWIDTH 480 0
DWIDTH 6 0
BBX 6 9 0 0
BITMAP
78
30
78
0C
7C
CC
CC
CC
78
ENDCHAR
STARTCHAR LATIN
ENCODING -1
SWIDTH 480 0
DWIDTH 6 0
BBX 6 8 0 0
BITMAP
6C
D8
00
78
CC
CC
CC
78
ENDCHAR
STARTCHAR LATIN
ENCODING -1
SWIDTH 480 0
DWIDTH 6 0
BBX 6 5 0 0
BITMAP
7C
DC
FC
EC
F8
ENDCHAR
STARTCHAR LATIN
ENCODING -1
SWIDTH 480 0
DWIDTH 6 0
BBX 6 10 0 -2
BITMAP
18
30
00
CC
CC
CC
CC
7C
0C
78
ENDCHAR
STARTCHAR LATIN
ENCODING -1
SWIDTH 480 0
DWIDTH 6 0
BBX 6 9 0 -2
BITMAP
C0
C0
F8
CC
CC
CC
F8
C0
C0
ENDCHAR
STARTCHAR LATIN
ENCODING -1
SWIDTH 480 0
DWIDTH 6 0
BBX 6 10 0 0
BITMAP
FC
FC
00
78
CC
CC
CC
FC
CC
CC
ENDCHAR
STARTCHAR LATIN
ENCODING -1
SWIDTH 480 0
DWIDTH 6 0
BBX 6 8 0 0
BITMAP
FC
FC
00
78
0C
7C
CC
7C
ENDCHAR
STARTCHAR LATIN
ENCODING -1
SWIDTH 480 0
DWIDTH 6 0
BBX 6 10 0 0
BITMAP
CC
78
00
78
CC
CC
CC
FC
CC
CC
ENDCHAR
STARTCHAR LATIN
ENCODING -1
SWIDTH 480 0
DWIDTH 6 0
BBX 6 8 0 0
BITMAP
CC
78
00
78
0C
7C
CC
7C
ENDCHAR
STARTCHAR LATIN
ENCODING -1
SWIDTH 480 0
DWIDTH 6 0
BBX 6 9 0 -2
BITMAP
78
CC
CC
CC
FC
CC
CC
18
0C
ENDCHAR
STARTCHAR LATIN
ENCODING -1
SWIDTH 480 0
DWIDTH 6 0
BBX 6 7 0 -2
BITMAP
78
0C
7C
CC
7C
18
0C
ENDCHAR
STARTCHAR LATIN
ENCODING -1
SWIDTH 480 0
DWIDTH 6 0
BBX 6 10 0 0
BITMAP
18
30
00
7C
C0
C0
C0
C0
C0
7C
ENDCHAR
STARTCHAR LATIN
ENCODING -1
SWIDTH 480 0
DWIDTH 6 0
BBX 6 8 0 0
BITMAP
18
30
00
7C
C0
C0
C0
7C
ENDCHAR
STARTCHAR LATIN
ENCODING -1
SWIDTH 480 0
DWIDTH 6 0
BBX 6 10 0 0
BITMAP
30
78
00
7C
C0
C0
C0
C0
C0
7C
ENDCHAR
STARTCHAR LATIN
ENCODING -1
SWIDTH 480 0
DWIDTH 6 0
BBX 6 8 0 0
BITMAP
30
78
00
7C
C0
C0
C0
7C
ENDCHAR
STARTCHAR LATIN
ENCODING -1
SWIDTH 480 0
DWIDTH 6 0
BBX 6 10 0 0
BITMAP
30
30
00
7C
C0
C0
C0
C0
C0
7C
ENDCHAR
STARTCHAR LATIN
ENCODING -1
SWIDTH 480 0
DWIDTH 6 0
BBX 6 8 0 0
BITMAP
30
30
00
7C
C0
C0
C0
7C
ENDCHAR
STARTCHAR LATIN
ENCODING -1
SWIDTH 480 0
DWIDTH 6 0
BBX 6 10 0 0
BITMAP
78
30
00
7C
C0
C0
C0
C0
C0
7C
ENDCHAR
STARTCHAR LATIN
ENCODING -1
SWIDTH 480 0
DWIDTH 6 0
BBX 6 8 0 0
BITMAP
78
30
00
7C
C0
C0
C0
7C
ENDCHAR
STARTCHAR LATIN
ENCODING -1
SWIDTH 480 0
DWIDTH 6 0
BBX 6 10 0 0
BITMAP
78
30
00
F8
CC
CC
CC
CC
CC
F8
ENDCHAR
STARTCHAR LATIN
ENCODING -1
SWIDTH 480 0
DWIDTH 6 0
BBX 6 10 0 0
BITMAP
0C
18
00
0C
0C
7C
CC
CC
CC
7C
ENDCHAR
STARTCHAR LATIN
ENCODING -1
SWIDTH 480 0
DWIDTH 6 0
BBX 6 7 0 0
BITMAP
F8
CC
CC
EC
CC
CC
F8
ENDCHAR
STARTCHAR LATIN
ENCODING -1
SWIDTH 480 0
DWIDTH 6 0
BBX 6 8 0 0
BITMAP
0C
3C
0C
7C
CC
CC
CC
7C
ENDCHAR
STARTCHAR LATIN
ENCODING -1
SWIDTH 480 0
DWIDTH 6 0
BBX 6 10 0 0
BITMAP
FC
FC
00
FC
C0
C0
F0
C0
C0
FC
ENDCHAR
STARTCHAR LATIN
ENCODING -1
SWIDTH 480 0
DWIDTH 6 0
BBX 6 8 0 0
BITMAP
FC
FC
00
78
CC
FC
C0
78
ENDCHAR
STARTCHAR LATIN
ENCODING -1
SWIDTH 480 0
DWIDTH 6 0
BBX 6 10 0 0
BITMAP
30
30
00
FC
C0
C0
F0
C0
C0
FC
ENDCHAR
STARTCHAR LATIN
ENCODING -1
SWIDTH 480 0
DWIDTH 6 0
BBX 6 8 0 0
BITMAP
30
30
00
78
CC
FC
C0
78
ENDCHAR
STARTCHAR LATIN
ENCODING -1
SWIDTH 480 0
DWIDTH 6 0
BBX 6 9 0 -2
BITMAP
FC
C0
C0
F0
C0
C0
FC
18
0C
ENDCHAR
STARTCHAR LATIN
ENCODING -1
SWIDTH 480 0
DWIDTH 6 0
BBX 6 7 0 -2
BITMAP
78
CC
FC
C0
78
18
0C
ENDCHAR
STARTCHAR LATIN
ENCODING -1
SWIDTH 480 0
DWIDTH 6 0
BBX 6 10 0 0
BITMAP
78
30
00
FC
C0
C0
F0
C0
C0
FC
ENDCHAR
STARTCHAR LATIN
ENCODING -1
SWIDTH 480 0
DWIDTH 6 0
BBX 6 8 0 0
BITMAP
78
30
00
78
CC
FC
C0
78
ENDCHAR
STARTCHAR LATIN
ENCODING -1
SWIDTH 480 0
DWIDTH 6 0
BBX 6 10 0 0
BITMAP
30
78
00
7C
C0
C0
DC
CC
CC
7C
ENDCHAR
STARTCHAR LATIN
ENCODING -1
SWIDTH 480 0
DWIDTH 6 0
BBX 6 10 0 -2
BITMAP
30
78
00
7C
CC
CC
CC
7C
0C
78
ENDCHAR
STARTCHAR LATIN
ENCODING -1
SWIDTH 480 0
DWIDTH 6 0
BBX 6 10 0 0
BITMAP
CC
78
00
7C
C0
C0
DC
CC
CC
7C
ENDCHAR
STARTCHAR LATIN
ENCODING -1
SWIDTH 480 0
DWIDTH 6 0
BBX 6 10 0 -2
BITMAP
CC
78
00
7C
CC
CC
CC
7C
0C
78
ENDCHAR
STARTCHAR LATIN
ENCODING -1
SWIDTH 480 0
DWIDTH 6 0
BBX 6 10 0 0
BITMAP
30
30
00
7C
C0
C0
DC
CC
CC
7C
ENDCHAR
STARTCHAR LATIN
ENCODING -1
SWIDTH 480 0
DWIDTH 6 0
BBX 6 10 0 -2
BITMAP
30
30
00
7C
CC
CC
CC
7C
0C
78
ENDCHAR
STARTCHAR LATIN
ENCODING -1
SWIDTH 480 0
DWIDTH 6 0
BBX 6 9 0 -2
BITMAP
7C
C0
C0
DC
CC
CC
7C
18
30
ENDCHAR
STARTCHAR LATIN
ENCODING -1
SWIDTH 480 0
DWIDTH 6 0
BBX 6 10 0 -2
BITMAP
18
30
00
7C
CC
CC
CC
7C
0C
78
ENDCHAR
STARTCHAR LATIN
ENCODING -1
SWIDTH 480 0
DWIDTH 6 0
BBX 6 10 0 0
BITMAP
30
78
00
CC
CC
CC
FC
CC
CC
CC
ENDCHAR
STARTCHAR LATIN
ENCODING -1
SWIDTH 480 0
DWIDTH 6 0
BBX 6 10 0 0
BITMAP
30
78
C0
C0
C0
F8
CC
CC
CC
CC
ENDCHAR
STARTCHAR LATIN
ENCODING -1
SWIDTH 480 0
DWIDTH 6 0
BBX 6 7 0 0
BITMAP
CC
FC
CC
FC
CC
CC
CC
ENDCHAR
STARTCHAR LATIN
ENCODING -1
SWIDTH 480 0
DWIDTH 6 0
BBX 6 8 0 0
BITMAP
C0
F0
C0
F8
CC
CC
CC
CC
ENDCHAR
STARTCHAR LATIN
ENCODING -1
SWIDTH 480 0
DWIDTH 6 0
BBX 6 10 0 0
BITMAP
6C
D8
00
78
30
30
30
30
30
78
ENDCHAR
STARTCHAR LATIN
ENCODING -1
SWIDTH 480 0
DWIDTH 6 0
BBX 6 8 0 0
BITMAP
6C
D8
00
70
30
30
30
30
ENDCHAR
STARTCHAR LATIN
ENCODING -1
SWIDTH 480 0
DWIDTH 6 0
BBX 6 10 0 0
BITMAP
FC
FC
00
78
30
30
30
30
30
78
ENDCHAR
STARTCHAR LATIN
ENCODING -1
SWIDTH 480 0
DWIDTH 6 0
BBX 4 8 1 0
BITMAP
F0
F0
00
E0
60
60
60
60
ENDCHAR
STARTCHAR LATIN
ENCODING -1
SWIDTH 480 0
DWIDTH 6 0
BBX 4 9 1 -2
BITMAP
F0
60
60
60
60
60
F0
60
30
ENDCHAR
STARTCHAR LATIN
ENCODING -1
SWIDTH 480 0
DWIDTH 6 0
BBX 4 10 1 -2
BITMAP
60
60
00
E0
60
60
60
60
60
30
ENDCHAR
STARTCHAR LATIN
ENCODING -1
SWIDTH 480 0
DWIDTH 6 0
BBX 4 10 1 0
BITMAP
60
60
00
F0
60
60
60
60
60
F0
ENDCHAR
STARTCHAR LATIN
ENCODING -1
SWIDTH 480 0
DWIDTH 6 0
BBX 3 5 1 0
BITMAP
E0
60
60
60
60
ENDCHAR
STARTCHAR LATIN
ENCODING -1
SWIDTH 480 0
DWIDTH 6 0
BBX 6 10 0 0
BITMAP
18
3C
00
0C
0C
0C
0C
0C
CC
78
ENDCHAR
STARTCHAR LATIN
ENCODING -1
SWIDTH 480 0
DWIDTH 6 0
BBX 4 10 1 -2
BITMAP
60
F0
00
E0
60
60
60
60
60
C0
ENDCHAR
STARTCHAR LATIN
ENCODING -1
SWIDTH 480 0
DWIDTH 6 0
BBX 6 9 0 -2
BITMAP
CC
D8
F0
E0
F0
D8
CC
30
60
ENDCHAR
STARTCHAR LATIN
ENCODING -1
SWIDTH 480 0
DWIDTH 6 0
BBX 6 10 0 -2
BITMAP
C0
C0
C0
CC
D8
F0
D8
CC
30
60
ENDCHAR
STARTCHAR LATIN
ENCODING -1
SWIDTH 480 0
DWIDTH 6 0
BBX 6 5 0 0
BITMAP
CC
D8
F0
D8
CC
ENDCHAR
STARTCHAR LATIN
ENCODING -1
SWIDTH 480 0
DWIDTH 6 0
BBX 6 10 0 0
BITMAP
60
C0
00
C0
C0
C0
C0
C0
C0
FC
ENDCHAR
STARTCHAR LATIN
ENCODING -1
SWIDTH 480 0
DWIDTH 6 0
BBX 4 10 1 0
BITMAP
60
C0
00
C0
C0
C0
C0
C0
C0
70
ENDCHAR
STARTCHAR LATIN
ENCODING -1
SWIDTH 480 0
DWIDTH 6 0
BBX 6 9 0 -2
BITMAP
C0
C0
C0
C0
C0
C0
FC
30
60
ENDCHAR
STARTCHAR LATIN
ENCODING -1
SWIDTH 480 0
DWIDTH 6 0
BBX 4 10 1 -2
BITMAP
C0
C0
C0
C0
C0
C0
C0
70
60
C0
ENDCHAR
STARTCHAR LATIN
ENCODING -1
SWIDTH 480 0
DWIDTH 6 0
BBX 6 7 0 0
BITMAP
CC
D8
C0
C0
C0
C0
FC
ENDCHAR
STARTCHAR LATIN
ENCODING -1
SWIDTH 480 0
DWIDTH 6 0
BBX 6 8 0 0
BITMAP
CC
D8
C0
C0
C0
C0
C0
70
ENDCHAR
STARTCHAR LATIN
ENCODING -1
SWIDTH 480 0
DWIDTH 6 0
BBX 6 7 0 0
BITMAP
C0
D8
F0
E0
C0
C0
FC
ENDCHAR
STARTCHAR LATIN
ENCODING -1
SWIDTH 480 0
DWIDTH 6 0
BBX 5 8 0 0
BITMAP
60
60
78
70
E0
60
60
38
ENDCHAR
STARTCHAR LATIN
ENCODING -1
SWIDTH 480 0
DWIDTH 6 0
BBX 6 10 0 0
BITMAP
18
30
00
CC
CC
EC
FC
DC
CC
CC
ENDCHAR
STARTCHAR LATIN
ENCODING -1
SWIDTH 480 0
DWIDTH 6 0
BBX 6 8 0 0
BITMAP
18
30
00
F8
CC
CC
CC
CC
ENDCHAR
STARTCHAR LATIN
ENCODING -1
SWIDTH 480 0
DWIDTH 6 0
BBX 6 9 0 -2
BITMAP
CC
CC
EC
FC
DC
CC
CC
30
60
ENDCHAR
STARTCHAR LATIN
ENCODING -1
SWIDTH 480 0
DWIDTH 6 0
BBX 6 7 0 -2
BITMAP
F8
CC
CC
CC
CC
30
60
ENDCHAR
STARTCHAR LATIN
ENCODING -1
SWIDTH 480 0
DWIDTH 6 0
BBX 6 10 0 0
BITMAP
78
30
00
CC
CC
EC
FC
DC
CC
CC
ENDCHAR
STARTCHAR LATIN
ENCODING -1
SWIDTH 480 0
DWIDTH 6 0
BBX 6 8 0 0
BITMAP
78
30
00
F8
CC
CC
CC
CC
ENDCHAR
STARTCHAR LATIN
ENCODING -1
SWIDTH 480 0
DWIDTH 6 0
BBX 6 9 0 -2
BITMAP
CC
CC
EC
FC
DC
CC
CC
0C
18
ENDCHAR
STARTCHAR LATIN
ENCODING -1
SWIDTH 480 0
DWIDTH 6 0
BBX 6 7 0 -2
BITMAP
F8
CC
CC
CC
CC
0C
18
ENDCHAR
STARTCHAR LATIN
ENCODING -1
SWIDTH 480 0
DWIDTH 6 0
BBX 6 10 0 0
BITMAP
FC
FC
00
78
CC
CC
CC
CC
CC
78
ENDCHAR
STARTCHAR LATIN
ENCODING -1
SWIDTH 480 0
DWIDTH 6 0
BBX 6 8 0 0
BITMAP
FC
FC
00
78
CC
CC
CC
78
ENDCHAR
STARTCHAR LATIN
ENCODING -1
SWIDTH 480 0
DWIDTH 6 0
BBX 6 10 0 0
BITMAP
6C
D8
00
78
CC
CC
CC
CC
CC
78
ENDCHAR
STARTCHAR LATIN
ENCODING -1
SWIDTH 480 0
DWIDTH 6 0
BBX 6 8 0 0
BITMAP
6C
D8
00
78
CC
CC
CC
78
ENDCHAR
STARTCHAR LATIN
ENCODING -1
SWIDTH 480 0
DWIDTH 6 0
BBX 6 7 0 0
BITMAP
7C
D8
D8
DC
D8
D8
7C
ENDCHAR
STARTCHAR LATIN
ENCODING -1
SWIDTH 480 0
DWIDTH 6 0
BBX 6 5 0 0
BITMAP
68
D4
DC
D8
6C
ENDCHAR
STARTCHAR LATIN
ENCODING -1
SWIDTH 480 0
DWIDTH 6 0
BBX 6 10 0 0
BITMAP
18
30
00
F8
CC
CC
CC
F8
D8
CC
ENDCHAR
STARTCHAR LATIN
ENCODING -1
SWIDTH 480 0
DWIDTH 6 0
BBX 6 8 0 0
BITMAP
18
30
00
DC
F0
C0
C0
C0
ENDCHAR
STARTCHAR LATIN
ENCODING -1
SWIDTH 480 0
DWIDTH 6 0
BBX 6 9 0 -2
BITMAP
F8
CC
CC
CC
F8
D8
CC
30
60
ENDCHAR
STARTCHAR LATIN
ENCODING -1
SWIDTH 480 0
DWIDTH 6 0
BBX 6 7 0 -2
BITMAP
DC
F0
C0
C0
C0
60
C0
ENDCHAR
STARTCHAR LATIN
ENCODING -1
SWIDTH 480 0
DWIDTH 6 0
BBX 6 10 0 0
BITMAP
78
30
00
F8
CC
CC
CC
F8
D8
CC
ENDCHAR
STARTCHAR LATIN
ENCODING -1
SWIDTH 480 0
DWIDTH 6 0
BBX 6 8 0 0
BITMAP
78
30
00
DC
F0
C0
C0
C0
ENDCHAR
STARTCHAR LATIN
ENCODING -1
SWIDTH 480 0
DWIDTH 6 0
BBX 6 10 0 0
BITMAP
18
30
00
7C
C0
C0
78
0C
0C
F8
ENDCHAR
STARTCHAR LATIN
ENCODING -1
SWIDTH 480 0
DWIDTH 6 0
BBX 6 8 0 0
BITMAP
18
30
00
7C
C0
78
0C
F8
ENDCHAR
STARTCHAR LATIN
ENCODING -1
SWIDTH 480 0
DWIDTH 6 0
BBX 6 10 0 0
BITMAP
30
78
00
7C
C0
C0
78
0C
0C
F8
ENDCHAR
STARTCHAR LATIN
ENCODING -1
SWIDTH 480 0
DWIDTH 6 0
BBX 6 8 0 0
BITMAP
30
78
00
7C
C0
78
0C
F8
ENDCHAR
STARTCHAR LATIN
ENCODING -1
SWIDTH 480 0
DWIDTH 6 0
BBX 6 9 0 -2
BITMAP
7C
C0
C0
78
0C
0C
F8
30
60
ENDCHAR
STARTCHAR LATIN
ENCODING -1
SWIDTH 480 0
DWIDTH 6 0
BBX 6 7 0 -2
BITMAP
7C
C0
78
0C
F8
30
60
ENDCHAR
STARTCHAR LATIN
ENCODING -1
SWIDTH 480 0
DWIDTH 6 0
BBX 6 10 0 0
BITMAP
78
30
00
7C
C0
C0
78
0C
0C
F8
ENDCHAR
STARTCHAR LATIN
ENCODING -1
SWIDTH 480 0
DWIDTH 6 0
BBX 6 8 0 0
BITMAP
78
30
00
7C
C0
78
0C
F8
ENDCHAR
STARTCHAR LATIN
ENCODING -1
SWIDTH 480 0
DWIDTH 6 0
BBX 6 9 0 -2
BITMAP
FC
30
30
30
30
30
30
30
60
ENDCHAR
STARTCHAR LATIN
ENCODING -1
SWIDTH 480 0
DWIDTH 6 0
BBX 5 10 1 -2
BITMAP
60
60
60
F0
60
60
60
38
30
60
ENDCHAR
STARTCHAR LATIN
ENCODING -1
SWIDTH 480 0
DWIDTH 6 0
BBX 6 10 0 0
BITMAP
78
30
00
FC
30
30
30
30
30
30
ENDCHAR
STARTCHAR LATIN
ENCODING -1
SWIDTH 480 0
DWIDTH 6 0
BBX 6 9 0 0
BITMAP
0C
78
60
60
F0
60
60
60
38
ENDCHAR
STARTCHAR LATIN
ENCODING -1
SWIDTH 480 0
DWIDTH 6 0
BBX 6 7 0 0
BITMAP
FC
30
30
78
30
30
30
ENDCHAR
STARTCHAR LATIN
ENCODING -1
SWIDTH 480 0
DWIDTH 6 0
BBX 5 8 1 0
BITMAP
60
60
F0
60
F0
60
60
38
ENDCHAR
STARTCHAR LATIN
ENCODING -1
SWIDTH 480 0
DWIDTH 6 0
BBX 6 10 0 0
BITMAP
6C
D8
00
CC
CC
CC
CC
CC
CC
78
ENDCHAR
STARTCHAR LATIN
ENCODING -1
SWIDTH 480 0
DWIDTH 6 0
BBX 6 8 0 0
BITMAP
6C
D8
00
CC
CC
CC
CC
7C
ENDCHAR
STARTCHAR LATIN
ENCODING -1
SWIDTH 480 0
DWIDTH 6 0
BBX 6 10 0 0
BITMAP
FC
FC
00
CC
CC
CC
CC
CC
CC
78
ENDCHAR
STARTCHAR LATIN
ENCODING -1
SWIDTH 480 0
DWIDTH 6 0
BBX 6 8 0 0
BITMAP
FC
FC
00
CC
CC
CC
CC
7C
ENDCHAR
STARTCHAR LATIN
ENCODING -1
SWIDTH 480 0
DWIDTH 6 0
BBX 6 10 0 0
BITMAP
CC
78
00
CC
CC
CC
CC
CC
CC
78
ENDCHAR
STARTCHAR LATIN
ENCODING -1
SWIDTH 480 0
DWIDTH 6 0
BBX 6 8 0 0
BITMAP
CC
78
00
CC
CC
CC
CC
7C
ENDCHAR
STARTCHAR LATIN
ENCODING -1
SWIDTH 480 0
DWIDTH 6 0
BBX 6 10 0 0
BITMAP
78
CC
78
CC
CC
CC
CC
CC
CC
78
ENDCHAR
STARTCHAR LATIN
ENCODING -1
SWIDTH 480 0
DWIDTH 6 0
BBX 6 9 0 0
BITMAP
78
CC
78
00
CC
CC
CC
CC
7C
ENDCHAR
STARTCHAR LATIN
ENCODING -1
SWIDTH 480 0
DWIDTH 6 0
BBX 6 10 0 0
BITMAP
6C
D8
00
CC
CC
CC
CC
CC
CC
78
ENDCHAR
STARTCHAR LATIN
ENCODING -1
SWIDTH 480 0
DWIDTH 6 0
BBX 6 8 0 0
BITMAP
6C
D8
00
CC
CC
CC
CC
7C
ENDCHAR
STARTCHAR LATIN
ENCODING -1
SWIDTH 480 0
DWIDTH 6 0
BBX 6 9 0 -2
BITMAP
CC
CC
CC
CC
CC
CC
78
30
18
ENDCHAR
STARTCHAR LATIN
ENCODING -1
SWIDTH 480 0
DWIDTH 6 0
BBX 6 7 0 -2
BITMAP
CC
CC
CC
CC
7C
18
0C
ENDCHAR
STARTCHAR LATIN
ENCODING -1
SWIDTH 480 0
DWIDTH 6 0
BBX 6 10 0 0
BITMAP
30
78
00
CC
CC
CC
CC
FC
FC
CC
ENDCHAR
STARTCHAR LATIN
ENCODING -1
SWIDTH 480 0
DWIDTH 6 0
BBX 6 8 0 0
BITMAP
30
78
00
CC
CC
FC
FC
CC
ENDCHAR
STARTCHAR LATIN
ENCODING -1
SWIDTH 480 0
DWIDTH 6 0
BBX 6 10 0 0
BITMAP
30
78
00
CC
CC
78
30
30
30
30
ENDCHAR
STARTCHAR LATIN
ENCODING -1
SWIDTH 480 0
DWIDTH 6 0
BBX 6 10 0 -2
BITMAP
30
78
00
CC
CC
CC
CC
7C
0C
78
ENDCHAR
STARTCHAR LATIN
ENCODING -1
SWIDTH 480 0
DWIDTH 6 0
BBX 6 10 0 0
BITMAP
CC
CC
00
CC
CC
78
30
30
30
30
ENDCHAR
STARTCHAR LATIN
ENCODING -1
SWIDTH 480 0
DWIDTH 6 0
BBX 6 10 0 0
BITMAP
18
30
00
FC
0C
18
30
60
C0
FC
ENDCHAR
STARTCHAR LATIN
ENCODING -1
SWIDTH 480 0
DWIDTH 6 0
BBX 6 8 0 0
BITMAP
18
30
00
FC
18
30
60
FC
ENDCHAR
STARTCHAR LATIN
ENCODING -1
SWIDTH 480 0
DWIDTH 6 0
BBX 6 10 0 0
BITMAP
30
30
00
FC
0C
18
30
60
C0
FC
ENDCHAR
STARTCHAR LATIN
ENCODING -1
SWIDTH 480 0
DWIDTH 6 0
BBX 6 8 0 0
BITMAP
30
30
00
FC
18
30
60
FC
ENDCHAR
STARTCHAR LATIN
ENCODING -1
SWIDTH 480 0
DWIDTH 6 0
BBX 6 10 0 0
BITMAP
78
30
00
FC
0C
18
30
60
C0
FC
ENDCHAR
STARTCHAR LATIN
ENCODING -1
SWIDTH 480 0
DWIDTH 6 0
BBX 6 8 0 0
BITMAP
78
30
00
FC
18
30
60
FC
ENDCHAR
STARTCHAR LATIN
ENCODING -1
SWIDTH 480 0
DWIDTH 6 0
BBX 6 9 0 -2
BITMAP
7C
C0
C0
78
0C
0C
F8
30
60
ENDCHAR
STARTCHAR LATIN
ENCODING -1
SWIDTH 480 0
DWIDTH 6 0
BBX 6 7 0 -2
BITMAP
7C
C0
78
0C
F8
30
60
ENDCHAR
STARTCHAR LATIN
ENCODING -1
SWIDTH 480 0
DWIDTH 6 0
BBX 6 9 0 -2
BITMAP
FC
30
30
30
30
30
30
30
60
ENDCHAR
STARTCHAR LATIN
ENCODING -1
SWIDTH 480 0
DWIDTH 6 0
BBX 5 10 1 -2
BITMAP
60
60
60
F0
60
60
60
38
30
60
ENDCHAR
STARTCHAR CARON
ENCODING -1
SWIDTH 480 0
DWIDTH 6 0
BBX 6 3 0 7
BITMAP
CC
78
30
ENDCHAR
STARTCHAR BREVE
ENCODING -1
SWIDTH 480 0
DWIDTH 6 0
BBX 6 2 0 8
BITMAP
CC
78
ENDCHAR
STARTCHAR DOT
ENCODING -1
SWIDTH 480 0
DWIDTH 6 0
BBX 2 2 2 8
BITMAP
C0
C0
ENDCHAR
STARTCHAR OGONEK
ENCODING -1
SWIDTH 480 0
DWIDTH 6 0
BBX 3 2 3 -2
BITMAP
C0
60
ENDCHAR
STARTCHAR DOUBLE
ENCODING -1
SWIDTH 480 0
DWIDTH 6 0
BBX 6 2 0 8
BITMAP
6C
D8
ENDCHAR
STARTCHAR GREEK
ENCODING -1
SWIDTH 480 0
DWIDTH 6 0
BBX 2 2 2 -2
BITMAP
C0
C0
ENDCHAR
STARTCHAR GREEK
ENCODING -1
SWIDTH 480 0
DWIDTH 6 0
BBX 3 7 1 -1
BITMAP
60
60
00
00
60
60
C0
ENDCHAR
STARTCHAR GREEK
ENCODING -1
SWIDTH 480 0
DWIDTH 6 0
BBX 3 2 2 8
BITMAP
60
C0
ENDCHAR
STARTCHAR GREEK
ENCODING -1
SWIDTH 480 0
DWIDTH 6 0
BBX 6 4 0 6
BITMAP
18
30
CC
CC
ENDCHAR
STARTCHAR GREEK
ENCODING -1
SWIDTH 480 0
DWIDTH 6 0
BBX 6 8 0 0
BITMAP
60
D8
2C
6C
6C
7C
6C
6C
ENDCHAR
STARTCHAR GREEK
ENCODING -1
SWIDTH 480 0
DWIDTH 6 0
BBX 6 8 0 0
BITMAP
60
DC
20
60
78
60
60
7C
ENDCHAR
STARTCHAR GREEK
ENCODING -1
SWIDTH 480 0
DWIDTH 6 0
BBX 6 8 0 0
BITMAP
60
CC
2C
6C
7C
6C
6C
6C
ENDCHAR
STARTCHAR GREEK
ENCODING -1
SWIDTH 480 0
DWIDTH 6 0
BBX 6 8 0 0
BITMAP
60
DC
18
18
18
18
18
3C
ENDCHAR
STARTCHAR GREEK
ENCODING -1
SWIDTH 480 0
DWIDTH 6 0
BBX 6 8 0 0
BITMAP
60
D8
2C
6C
6C
6C
6C
38
ENDCHAR
STARTCHAR GREEK
ENCODING -1
SWIDTH 480 0
DWIDTH 6 0
BBX 6 8 0 0
BITMAP
60
CC
2C
78
30
30
30
30
ENDCHAR
STARTCHAR GREEK
ENCODING -1
SWIDTH 480 0
DWIDTH 6 0
BBX 6 8 0 0
BITMAP
60
D8
2C
6C
6C
6C
38
7C
ENDCHAR
STARTCHAR GREEK
ENCODING -1
SWIDTH 480 0
DWIDTH 6 0
BBX 6 10 0 0
BITMAP
18
30
CC
CC
00
30
30
30
30
18
ENDCHAR
STARTCHAR GREEK
ENCODING -1
SWIDTH 480 0
DWIDTH 6 0
BBX 6 7 0 0
BITMAP
78
CC
CC
CC
FC
CC
CC
ENDCHAR
STARTCHAR GREEK
ENCODING -1
SWIDTH 480 0
DWIDTH 6 0
BBX 6 7 0 0
BITMAP
F8
CC
CC
F8
CC
CC
F8
ENDCHAR
STARTCHAR GREEK
ENCODING -1
SWIDTH 480 0
DWIDTH 6 0
BBX 6 7 0 0
BITMAP
30
30
78
78
CC
CC
FC
ENDCHAR
STARTCHAR GREEK
ENCODING -1
SWIDTH 480 0
DWIDTH 6 0
BBX 6 7 0 0
BITMAP
FC
C0
C0
F0
C0
C0
FC
ENDCHAR
STARTCHAR GREEK
ENCODING -1
SWIDTH 480 0
DWIDTH 6 0
BBX 6 7 0 0
BITMAP
FC
0C
18
30
60
C0
FC
ENDCHAR
STARTCHAR GREEK
ENCODING -1
SWIDTH 480 0
DWIDTH 6 0
BBX 6 7 0 0
BITMAP
CC
CC
CC
FC
CC
CC
CC
ENDCHAR
STARTCHAR GREEK
ENCODING -1
SWIDTH 480 0
DWIDTH 6 0
BBX 4 7 1 0
BITMAP
F0
60
60
60
60
60
F0
ENDCHAR
STARTCHAR GREEK
ENCODING -1
SWIDTH 480 0
DWIDTH 6 0
BBX 6 7 0 0
BITMAP
CC
D8
F0
E0
F0
D8
CC
ENDCHAR
STARTCHAR GREEK
ENCODING -1
SWIDTH 480 0
DWIDTH 6 0
BBX 6 7 0 0
BITMAP
30
30
78
78
CC
CC
CC
ENDCHAR
STARTCHAR GREEK
ENCODING -1
SWIDTH 480 0
DWIDTH 6 0
BBX 6 7 0 0
BITMAP
CC
FC
FC
CC
CC
CC
CC
ENDCHAR
STARTCHAR GREEK
ENCODING -1
SWIDTH 480 0
DWIDTH 6 0
BBX 6 7 0 0
BITMAP
CC
CC
EC
FC
DC
CC
CC
ENDCHAR
STARTCHAR GREEK
ENCODING -1
SWIDTH 480 0
DWIDTH 6 0
BBX 6 7 0 0
BITMAP
FC
FC
00
78
00
FC
FC
ENDCHAR
STARTCHAR GREEK
ENCODING -1
SWIDTH 480 0
DWIDTH 6 0
BBX 6 7 0 0
BITMAP
78
CC
CC
CC
CC
CC
78
ENDCHAR
STARTCHAR GREEK
ENCODING -1
SWIDTH 480 0
DWIDTH 6 0
BBX 6 7 0 0
BITMAP
FC
CC
CC
CC
CC
CC
CC
ENDCHAR
STARTCHAR GREEK
ENCODING -1
SWIDTH 480 0
DWIDTH 6 0
BBX 6 7 0 0
BITMAP
F8
CC
CC
CC
F8
C0
C0
ENDCHAR
STARTCHAR GREEK
ENCODING -1
SWIDTH 480 0
DWIDTH 6 0
BBX 6 7 0 0
BITMAP
FC
30
30
30
30
30
30
ENDCHAR
STARTCHAR GREEK
ENCODING -1
SWIDTH 480 0
DWIDTH 6 0
BBX 6 7 0 0
BITMAP
CC
CC
78
30
30
30
30
ENDCHAR
STARTCHAR GREEK
ENCODING -1
SWIDTH 480 0
DWIDTH 6 0
BBX 6 7 0 0
BITMAP
CC
CC
78
30
78
CC
CC
ENDCHAR
STARTCHAR GREEK
ENCODING -1
SWIDTH 480 0
DWIDTH 6 0
BBX 6 7 0 0
BITMAP
B4
B4
FC
78
30
30
30
ENDCHAR
STARTCHAR GREEK
ENCODING -1
SWIDTH 480 0
DWIDTH 6 0
BBX 6 10 0 0
BITMAP
CC
CC
00
78
30
30
30
30
30
78
ENDCHAR
STARTCHAR GREEK
ENCODING -1
SWIDTH 480 0
DWIDTH 6 0
BBX 6 10 0 0
BITMAP
CC
CC
00
CC
CC
78
30
30
30
30
ENDCHAR
STARTCHAR GREEK
ENCODING -1
SWIDTH 480 0
DWIDTH 6 0
BBX 6 8 0 0
BITMAP
18
30
00
6C
D8
D8
D8
6C
ENDCHAR
STARTCHAR GREEK
ENCODING -1
SWIDTH 480 0
DWIDTH 6 0
BBX 6 8 0 0
BITMAP
18
30
00
7C
C0
70
C0
7C
ENDCHAR
STARTCHAR GREEK
ENCODING -1
SWIDTH 480 0
DWIDTH 6 0
BBX 6 10 0 -2
BITMAP
18
30
00
F8
CC
CC
CC
CC
0C
0C
ENDCHAR
STARTCHAR GREEK
ENCODING -1
SWIDTH 480 0
DWIDTH 6 0
BBX 3 8 2 0
BITMAP
60
C0
00
C0
C0
C0
C0
60
ENDCHAR
STARTCHAR GREEK
ENCODING -1
SWIDTH 480 0
DWIDTH 6 0
BBX 6 10 0 0
BITMAP
18
30
CC
CC
00
CC
CC
CC
CC
78
ENDCHAR
STARTCHAR GREEK
ENCODING -1
SWIDTH 480 0
DWIDTH 6 0
BBX 6 10 0 -2
BITMAP
70
D8
D8
F0
D8
CC
CC
F8
C0
C0
ENDCHAR
STARTCHAR GREEK
ENCODING -1
SWIDTH 480 0
DWIDTH 6 0
BBX 6 7 0 -2
BITMAP
CC
CC
78
78
30
30
30
ENDCHAR
STARTCHAR GREEK
ENCODING -1
SWIDTH 480 0
DWIDTH 6 0
BBX 6 9 0 -1
BITMAP
FC
0C
18
30
60
C0
C0
78
0C
ENDCHAR
STARTCHAR GREEK
ENCODING -1
SWIDTH 480 0
DWIDTH 6 0
BBX 6 7 0 -2
BITMAP
F8
CC
CC
CC
CC
0C
0C
ENDCHAR
STARTCHAR GREEK
ENCODING -1
SWIDTH 480 0
DWIDTH 6 0
BBX 6 8 0 0
BITMAP
78
CC
CC
FC
CC
CC
CC
78
ENDCHAR
STARTCHAR GREEK
ENCODING -1
SWIDTH 480 0
DWIDTH 6 0
BBX 3 5 2 0
BITMAP
C0
C0
C0
C0
60
ENDCHAR
STARTCHAR GREEK
ENCODING -1
SWIDTH 480 0
DWIDTH 6 0
BBX 6 5 0 0
BITMAP
CC
D8
F0
D8
CC
ENDCHAR
STARTCHAR GREEK
ENCODING -1
SWIDTH 480 0
DWIDTH 6 0
BBX 6 8 0 0
BITMAP
60
30
30
30
78
78
CC
CC
ENDCHAR
STARTCHAR GREEK
ENCODING -1
SWIDTH 480 0
DWIDTH 6 0
BBX 6 7 0 -2
BITMAP
CC
CC
CC
CC
F8
C0
C0
ENDCHAR
STARTCHAR GREEK
ENCODING -1
SWIDTH 480 0
DWIDTH 6 0
BBX 6 5 0 0
BITMAP
CC
CC
6C
78
30
ENDCHAR
STARTCHAR GREEK
ENCODING -1
SWIDTH 480 0
DWIDTH 6 0
BBX 6 9 0 -1
BITMAP
7C
30
60
38
60
C0
C0
78
0C
ENDCHAR
STARTCHAR GREEK
ENCODING -1
SWIDTH 480 0
DWIDTH 6 0
BBX 6 5 0 0
BITMAP
78
CC
CC
CC
78
ENDCHAR
STARTCHAR GREEK
ENCODING -1
SWIDTH 480 0
DWIDTH 6 0
BBX 6 7 0 -2
BITMAP
78
CC
CC
CC
F8
C0
C0
ENDCHAR
STARTCHAR GREEK
ENCODING -1
SWIDTH 480 0
DWIDTH 6 0
BBX 6 6 0 -1
BITMAP
7C
C0
C0
C0
78
0C
ENDCHAR
STARTCHAR GREEK
ENCODING -1
SWIDTH 480 0
DWIDTH 6 0
BBX 6 5 0 0
BITMAP
CC
CC
CC
CC
78
ENDCHAR
STARTCHAR GREEK
ENCODING -1
SWIDTH 480 0
DWIDTH 6 0
BBX 6 7 0 -2
BITMAP
EC
3C
38
30
70
F0
DC
ENDCHAR
STARTCHAR GREEK
ENCODING -1
SWIDTH 480 0
DWIDTH 6 0
BBX 6 9 0 -2
BITMAP
30
30
B4
B4
B4
FC
78
30
30
ENDCHAR
STARTCHAR GREEK
ENCODING -1
SWIDTH 480 0
DWIDTH 6 0
BBX 6 5 0 0
BITMAP
48
CC
FC
FC
48
ENDCHAR
STARTCHAR GREEK
ENCODING -1
SWIDTH 480 0
DWIDTH 6 0
BBX 6 8 0 0
BITMAP
CC
CC
00
30
30
30
30
18
ENDCHAR
STARTCHAR GREEK
ENCODING -1
SWIDTH 480 0
DWIDTH 6 0
BBX 6 8 0 0
BITMAP
CC
CC
00
CC
CC
CC
CC
78
ENDCHAR
STARTCHAR GREEK
ENCODING -1
SWIDTH 480 0
DWIDTH 6 0
BBX 6 8 0 0
BITMAP
18
30
00
78
CC
CC
CC
78
ENDCHAR
STARTCHAR GREEK
ENCODING -1
SWIDTH 480 0
DWIDTH 6 0
BBX 6 8 0 0
BITMAP
18
30
00
CC
CC
CC
CC
78
ENDCHAR
STARTCHAR GREEK
ENCODING -1
SWIDTH 480 0
DWIDTH 6 0
BBX 6 8 0 0
BITMAP
18
30
00
48
CC
FC
FC
48
ENDCHAR
STARTCHAR CYRILLIC
ENCODING -1
SWIDTH 480 0
DWIDTH 6 0
BBX 6 10 0 0
BITMAP
CC
CC
00
FC
C0
C0
F0
C0
C0
FC
ENDCHAR
STARTCHAR CYRILLIC
ENCODING -1
SWIDTH 480 0
DWIDTH 6 0
BBX 6 8 0 -1
BITMAP
F0
C0
C0
F8
CC
CC
CC
18
ENDCHAR
STARTCHAR CYRILLIC
ENCODING -1
SWIDTH 480 0
DWIDTH 6 0
BBX 6 10 0 0
BITMAP
18
30
00
FC
C0
C0
C0
C0
C0
C0
ENDCHAR
STARTCHAR CYRILLIC
ENCODING -1
SWIDTH 480 0
DWIDTH 6 0
BBX 6 7 0 0
BITMAP
7C
C0
C0
F0
C0
C0
7C
ENDCHAR
STARTCHAR CYRILLIC
ENCODING -1
SWIDTH 480 0
DWIDTH 6 0
BBX 6 7 0 0
BITMAP
7C
C0
C0
78
0C
0C
F8
ENDCHAR
STARTCHAR CYRILLIC
ENCODING -1
SWIDTH 480 0
DWIDTH 6 0
BBX 4 7 1 0
BITMAP
F0
60
60
60
60
60
F0
ENDCHAR
STARTCHAR CYRILLIC
ENCODING -1
SWIDTH 480 0
DWIDTH 6 0
BBX 6 10 0 0
BITMAP
CC
CC
00
78
30
30
30
30
30
78
ENDCHAR
STARTCHAR CYRILLIC
ENCODING -1
SWIDTH 480 0
DWIDTH 6 0
BBX 6 7 0 0
BITMAP
0C
0C
0C
0C
0C
CC
78
ENDCHAR
STARTCHAR CYRILLIC
ENCODING -1
SWIDTH 480 0
DWIDTH 6 0
BBX 6 7 0 0
BITMAP
78
D8
D8
DC
D4
D4
DC
ENDCHAR
STARTCHAR CYRILLIC
ENCODING -1
SWIDTH 480 0
DWIDTH 6 0
BBX 6 7 0 0
BITMAP
D8
D8
D8
FC
D4
D4
DC
ENDCHAR
STARTCHAR CYRILLIC
ENCODING -1
SWIDTH 480 0
DWIDTH 6 0
BBX 6 7 0 0
BITMAP
F0
C0
C0
F8
CC
CC
CC
ENDCHAR
STARTCHAR CYRILLIC
ENCODING -1
SWIDTH 480 0
DWIDTH 6 0
BBX 6 10 0 0
BITMAP
18
30
00
CC
D8
F0
E0
F0
D8
CC
ENDCHAR
STARTCHAR CYRILLIC
ENCODING -1
SWIDTH 480 0
DWIDTH 6 0
BBX 6 10 0 0
BITMAP
CC
78
00
CC
CC
CC
7C
0C
0C
38
ENDCHAR
STARTCHAR CYRILLIC
ENCODING -1
SWIDTH 480 0
DWIDTH 6 0
BBX 6 8 0 -1
BITMAP
CC
CC
CC
CC
CC
CC
FC
30
ENDCHAR
STARTCHAR CYRILLIC
ENCODING -1
SWIDTH 480 0
DWIDTH 6 0
BBX 6 7 0 0
BITMAP
78
CC
CC
CC
FC
CC
CC
ENDCHAR
STARTCHAR CYRILLIC
ENCODING -1
SWIDTH 480 0
DWIDTH 6 0
BBX 6 7 0 0
BITMAP
F8
C0
C0
F8
CC
CC
F8
ENDCHAR
STARTCHAR CYRILLIC
ENCODING -1
SWIDTH 480 0
DWIDTH 6 0
BBX 6 7 0 0
BITMAP
F8
CC
CC
F8
CC
CC
F8
ENDCHAR
STARTCHAR CYRILLIC
ENCODING -1
SWIDTH 480 0
DWIDTH 6 0
BBX 6 7 0 0
BITMAP
FC
C0
C0
C0
C0
C0
C0
ENDCHAR
STARTCHAR CYRILLIC
ENCODING -1
SWIDTH 480 0
DWIDTH 6 0
BBX 6 8 0 -1
BITMAP
7C
CC
CC
CC
CC
CC
FC
84
ENDCHAR
STARTCHAR CYRILLIC
ENCODING -1
SWIDTH 480 0
DWIDTH 6 0
BBX 6 7 0 0
BITMAP
FC
C0
C0
F0
C0
C0
FC
ENDCHAR
STARTCHAR CYRILLIC
ENCODING -1
SWIDTH 480 0
DWIDTH 6 0
BBX 6 7 0 0
BITMAP
B4
B4
FC
78
FC
B4
B4
ENDCHAR
STARTCHAR CYRILLIC
ENCODING -1
SWIDTH 480 0
DWIDTH 6 0
BBX 6 7 0 0
BITMAP
F8
0C
0C
38
0C
0C
F8
ENDCHAR
STARTCHAR CYRILLIC
ENCODING -1
SWIDTH 480 0
DWIDTH 6 0
BBX 6 7 0 0
BITMAP
CC
CC
DC
FC
EC
CC
CC
ENDCHAR
STARTCHAR CYRILLIC
ENCODING -1
SWIDTH 480 0
DWIDTH 6 0
BBX 6 10 0 0
BITMAP
CC
78
00
CC
CC
DC
FC
EC
CC
CC
ENDCHAR
STARTCHAR CYRILLIC
ENCODING -1
SWIDTH 480 0
DWIDTH 6 0
BBX 6 7 0 0
BITMAP
CC
D8
F0
E0
F0
D8
CC
ENDCHAR
STARTCHAR CYRILLIC
ENCODING -1
SWIDTH 480 0
DWIDTH 6 0
BBX 6 7 0 0
BITMAP
3C
6C
6C
6C
6C
6C
CC
ENDCHAR
STARTCHAR CYRILLIC
ENCODING -1
SWIDTH 480 0
DWIDTH 6 0
BBX 6 7 0 0
BITMAP
CC
FC
FC
CC
CC
CC
CC
ENDCHAR
STARTCHAR CYRILLIC
ENCODING -1
SWIDTH 480 0
DWIDTH 6 0
BBX 6 7 0 0
BITMAP
CC
CC
CC
FC
CC
CC
CC
ENDCHAR
STARTCHAR CYRILLIC
ENCODING -1
SWIDTH 480 0
DWIDTH 6 0
BBX 6 7 0 0
BITMAP
78
CC
CC
CC
CC
CC
78
ENDCHAR
STARTCHAR CYRILLIC
ENCODING -1
SWIDTH 480 0
DWIDTH 6 0
BBX 6 7 0 0
BITMAP
FC
CC
CC
CC
CC
CC
CC
ENDCHAR
STARTCHAR CYRILLIC
ENCODING -1
SWIDTH 480 0
DWIDTH 6 0
BBX 6 7 0 0
BITMAP
F8
CC
CC
CC
F8
C0
C0
ENDCHAR
STARTCHAR CYRILLIC
ENCODING -1
SWIDTH 480 0
DWIDTH 6 0
BBX 6 7 0 0
BITMAP
7C
C0
C0
C0
C0
C0
7C
ENDCHAR
STARTCHAR CYRILLIC
ENCODING -1
SWIDTH 480 0
DWIDTH 6 0
BBX 6 7 0 0
BITMAP
FC
30
30
30
30
30
30
ENDCHAR
STARTCHAR CYRILLIC
ENCODING -1
SWIDTH 480 0
DWIDTH 6 0
BBX 6 7 0 0
BITMAP
CC
CC
CC
7C
0C
0C
78
ENDCHAR
STARTCHAR CYRILLIC
ENCODING -1
SWIDTH 480 0
DWIDTH 6 0
BBX 6 7 0 0
BITMAP
30
78
FC
B4
FC
78
30
ENDCHAR
STARTCHAR CYRILLIC
ENCODING -1
SWIDTH 480 0
DWIDTH 6 0
BBX 6 7 0 0
BITMAP
CC
CC
78
30
78
CC
CC
ENDCHAR
STARTCHAR CYRILLIC
ENCODING -1
SWIDTH 480 0
DWIDTH 6 0
BBX 6 8 0 -1
BITMAP
CC
CC
CC
CC
CC
CC
FC
04
ENDCHAR
STARTCHAR CYRILLIC
ENCODING -1
SWIDTH 480 0
DWIDTH 6 0
BBX 6 7 0 0
BITMAP
CC
CC
CC
7C
0C
0C
0C
ENDCHAR
STARTCHAR CYRILLIC
ENCODING -1
SWIDTH 480 0
DWIDTH 6 0
BBX 6 7 0 0
BITMAP
B4
B4
B4
B4
B4
FC
FC
ENDCHAR
STARTCHAR CYRILLIC
ENCODING -1
SWIDTH 480 0
DWIDTH 6 0
BBX 6 8 0 -1
BITMAP
B4
B4
B4
B4
B4
FC
FC
04
ENDCHAR
STARTCHAR CYRILLIC
ENCODING -1
SWIDTH 480 0
DWIDTH 6 0
BBX 6 7 0 0
BITMAP
E0
60
60
78
6C
6C
78
ENDCHAR
STARTCHAR CYRILLIC
ENCODING -1
SWIDTH 480 0
DWIDTH 6 0
BBX 6 7 0 0
BITMAP
CC
CC
CC
FC
DC
DC
FC
ENDCHAR
STARTCHAR CYRILLIC
ENCODING -1
SWIDTH 480 0
DWIDTH 6 0
BBX 6 7 0 0
BITMAP
C0
C0
C0
F8
CC
CC
F8
ENDCHAR
STARTCHAR CYRILLIC
ENCODING -1
SWIDTH 480 0
DWIDTH 6 0
BBX 6 7 0 0
BITMAP
F8
0C
0C
3C
0C
0C
F8
ENDCHAR
STARTCHAR CYRILLIC
ENCODING -1
SWIDTH 480 0
DWIDTH 6 0
BBX 6 7 0 0
BITMAP
B8
EC
EC
EC
EC
EC
B8
ENDCHAR
STARTCHAR CYRILLIC
ENCODING -1
SWIDTH 480 0
DWIDTH 6 0
BBX 6 7 0 0
BITMAP
7C
CC
CC
CC
7C
6C
CC
ENDCHAR
STARTCHAR CYRILLIC
ENCODING -1
SWIDTH 480 0
DWIDTH 6 0
BBX 6 5 0 0
BITMAP
78
0C
7C
CC
7C
ENDCHAR
STARTCHAR CYRILLIC
ENCODING -1
SWIDTH 480 0
DWIDTH 6 0
BBX 6 9 0 0
BITMAP
0C
38
60
C0
F8
CC
CC
CC
78
ENDCHAR
STARTCHAR CYRILLIC
ENCODING -1
SWIDTH 480 0
DWIDTH 6 0
BBX 6 5 0 0
BITMAP
F8
CC
F8
CC
F8
ENDCHAR
STARTCHAR CYRILLIC
ENCODING -1
SWIDTH 480 0
DWIDTH 6 0
BBX 6 5 0 0
BITMAP
FC
C0
C0
C0
C0
ENDCHAR
STARTCHAR CYRILLIC
ENCODING -1
SWIDTH 480 0
DWIDTH 6 0
BBX 6 6 0 -1
BITMAP
38
58
58
58
FC
CC
ENDCHAR
STARTCHAR CYRILLIC
ENCODING -1
SWIDTH 480 0
DWIDTH 6 0
BBX 6 5 0 0
BITMAP
78
CC
FC
C0
78
ENDCHAR
STARTCHAR CYRILLIC
ENCODING -1
SWIDTH 480 0
DWIDTH 6 0
BBX 6 5 0 0
BITMAP
B4
B4
78
B4
B4
ENDCHAR
STARTCHAR CYRILLIC
ENCODING -1
SWIDTH 480 0
DWIDTH 6 0
BBX 6 5 0 0
BITMAP
F8
0C
38
0C
F8
ENDCHAR
STARTCHAR CYRILLIC
ENCODING -1
SWIDTH 480 0
DWIDTH 6 0
BBX 6 5 0 0
BITMAP
CC
DC
FC
EC
CC
ENDCHAR
STARTCHAR CYRILLIC
ENCODING -1
SWIDTH 480 0
DWIDTH 6 0
BBX 6 8 0 0
BITMAP
CC
78
00
CC
DC
FC
EC
CC
ENDCHAR
STARTCHAR CYRILLIC
ENCODING -1
SWIDTH 480 0
DWIDTH 6 0
BBX 6 5 0 0
BITMAP
CC
D8
F0
D8
CC
ENDCHAR
STARTCHAR CYRILLIC
ENCODING -1
SWIDTH 480 0
DWIDTH 6 0
BBX 6 5 0 0
BITMAP
3C
6C
6C
6C
CC
ENDCHAR
STARTCHAR CYRILLIC
ENCODING -1
SWIDTH 480 0
DWIDTH 6 0
BBX 6 5 0 0
BITMAP
CC
FC
FC
CC
CC
ENDCHAR
STARTCHAR CYRILLIC
ENCODING -1
SWIDTH 480 0
DWIDTH 6 0
BBX 6 5 0 0
BITMAP
CC
CC
FC
CC
CC
ENDCHAR
STARTCHAR CYRILLIC
ENCODING -1
SWIDTH 480 0
DWIDTH 6 0
BBX 6 5 0 0
BITMAP
78
CC
CC
CC
78
ENDCHAR
STARTCHAR CYRILLIC
ENCODING -1
SWIDTH 480 0
DWIDTH 6 0
BBX 6 5 0 0
BITMAP
FC
CC
CC
CC
CC
ENDCHAR
STARTCHAR CYRILLIC
ENCODING -1
SWIDTH 480 0
DWIDTH 6 0
BBX 6 7 0 -2
BITMAP
F8
CC
CC
CC
F8
C0
C0
ENDCHAR
STARTCHAR CYRILLIC
ENCODING -1
SWIDTH 480 0
DWIDTH 6 0
BBX 6 5 0 0
BITMAP
7C
C0
C0
C0
7C
ENDCHAR
STARTCHAR CYRILLIC
ENCODING -1
SWIDTH 480 0
DWIDTH 6 0
BBX 6 5 0 0
BITMAP
FC
30
30
30
30
ENDCHAR
STARTCHAR CYRILLIC
ENCODING -1
SWIDTH 480 0
DWIDTH 6 0
BBX 6 7 0 -2
BITMAP
CC
CC
CC
CC
7C
0C
78
ENDCHAR
STARTCHAR CYRILLIC
ENCODING -1
SWIDTH 480 0
DWIDTH 6 0
BBX 6 9 0 -2
BITMAP
30
30
78
FC
B4
FC
78
30
30
ENDCHAR
STARTCHAR CYRILLIC
ENCODING -1
SWIDTH 480 0
DWIDTH 6 0
BBX 6 5 0 0
BITMAP
CC
78
30
78
CC
ENDCHAR
STARTCHAR CYRILLIC
ENCODING -1
SWIDTH 480 0
DWIDTH 6 0
BBX 6 6 0 -1
BITMAP
CC
CC
CC
CC
FC
04
ENDCHAR
STARTCHAR CYRILLIC
ENCODING -1
SWIDTH 480 0
DWIDTH 6 0
BBX 6 5 0 0
BITMAP
CC
CC
7C
0C
0C
ENDCHAR
STARTCHAR CYRILLIC
ENCODING -1
SWIDTH 480 0
DWIDTH 6 0
BBX 6 5 0 0
BITMAP
B4
B4
B4
FC
FC
ENDCHAR
STARTCHAR CYRILLIC
ENCODING -1
SWIDTH 480 0
DWIDTH 6 0
BBX 6 6 0 -1
BITMAP
B4
B4
B4
FC
FC
04
ENDCHAR
STARTCHAR CYRILLIC
ENCODING -1
SWIDTH 480 0
DWIDTH 6 0
BBX 6 5 0 0
BITMAP
E0
60
78
6C
78
ENDCHAR
STARTCHAR CYRILLIC
ENCODING -1
SWIDTH 480 0
DWIDTH 6 0
BBX 6 5 0 0
BITMAP
CC
CC
FC
DC
FC
ENDCHAR
STARTCHAR CYRILLIC
ENCODING -1
SWIDTH 480 0
DWIDTH 6 0
BBX 6 5 0 0
BITMAP
C0
C0
F8
CC
F8
ENDCHAR
STARTCHAR CYRILLIC
ENCODING -1
SWIDTH 480 0
DWIDTH 6 0
BBX 6 5 0 0
BITMAP
F8
0C
3C
0C
F8
ENDCHAR
STARTCHAR CYRILLIC
ENCODING -1
SWIDTH 480 0
DWIDTH 6 0
BBX 6 5 0 0
BITMAP
B8
EC
EC
EC
B8
ENDCHAR
STARTCHAR CYRILLIC
ENCODING -1
SWIDTH 480 0
DWIDTH 6 0
BBX 6 5 0 0
BITMAP
7C
CC
7C
6C
CC
ENDCHAR
STARTCHAR CYRILLIC
ENCODING -1
SWIDTH 480 0
DWIDTH 6 0
BBX 6 8 0 0
BITMAP
CC
CC
00
78
CC
FC
C0
78
ENDCHAR
STARTCHAR CYRILLIC
ENCODING -1
SWIDTH 480 0
DWIDTH 6 0
BBX 6 10 0 -2
BITMAP
C0
F0
C0
F8
CC
CC
CC
CC
0C
18
ENDCHAR
STARTCHAR CYRILLIC
ENCODING -1
SWIDTH 480 0
DWIDTH 6 0
BBX 6 8 0 0
BITMAP
18
30
00
FC
C0
C0
C0
C0
ENDCHAR
STARTCHAR CYRILLIC
ENCODING -1
SWIDTH 480 0
DWIDTH 6 0
BBX 6 5 0 0
BITMAP
7C
C0
F0
C0
7C
ENDCHAR
STARTCHAR CYRILLIC
ENCODING -1
SWIDTH 480 0
DWIDTH 6 0
BBX 6 5 0 0
BITMAP
7C
C0
78
0C
F8
ENDCHAR
STARTCHAR CYRILLIC
ENCODING -1
SWIDTH 480 0
DWIDTH 6 0
BBX 3 8 1 0
BITMAP
60
60
00
E0
60
60
60
60
ENDCHAR
STARTCHAR CYRILLIC
ENCODING -1
SWIDTH 480 0
DWIDTH 6 0
BBX 6 8 0 0
BITMAP
CC
CC
00
70
30
30
30
30
ENDCHAR
STARTCHAR CYRILLIC
ENCODING -1
SWIDTH 480 0
DWIDTH 6 0
BBX 3 10 1 -2
BITMAP
60
60
00
E0
60
60
60
60
60
C0
ENDCHAR
STARTCHAR CYRILLIC
ENCODING -1
SWIDTH 480 0
DWIDTH 6 0
BBX 6 5 0 0
BITMAP
78
D8
DC
D4
DC
ENDCHAR
STARTCHAR CYRILLIC
ENCODING -1
SWIDTH 480 0
DWIDTH 6 0
BBX 6 5 0 0
BITMAP
D8
D8
FC
D4
DC
ENDCHAR
STARTCHAR CYRILLIC
ENCODING -1
SWIDTH 480 0
DWIDTH 6 0
BBX 6 8 0 0
BITMAP
C0
F0
C0
F8
CC
CC
CC
CC
ENDCHAR
STARTCHAR CYRILLIC
ENCODING -1
SWIDTH 480 0
DWIDTH 6 0
BBX 6 8 0 0
BITMAP
18
30
00
CC
D8
F0
D8
CC
ENDCHAR
STARTCHAR CYRILLIC
ENCODING -1
SWIDTH 480 0
DWIDTH 6 0
BBX 6 10 0 -2
BITMAP
CC
78
00
CC
CC
CC
CC
7C
0C
78
ENDCHAR
STARTCHAR CYRILLIC
ENCODING -1
SWIDTH 480 0
DWIDTH 6 0
BBX 6 7 0 -2
BITMAP
CC
CC
CC
CC
FC
30
30
ENDCHAR
STARTCHAR CYRILLIC
ENCODING -1
SWIDTH 480 0
DWIDTH 6 0
BBX 6 8 0 0
BITMAP
0C
FC
C0
C0
C0
C0
C0
C0
ENDCHAR
STARTCHAR CYRILLIC
ENCODING -1
SWIDTH 480 0
DWIDTH 6 0
BBX 6 6 0 0
BITMAP
0C
FC
C0
C0
C0
C0
ENDCHAR
STARTCHAR HEBREW
ENCODING -1
SWIDTH 480 0
DWIDTH 6 0
BBX 6 5 0 0
BITMAP
CC
6C
FC
D8
CC
ENDCHAR
STARTCHAR HEBREW
ENCODING -1
SWIDTH 480 0
DWIDTH 6 0
BBX 6 5 0 0
BITMAP
F0
18
18
18
FC
ENDCHAR
STARTCHAR HEBREW
ENCODING -1
SWIDTH 480 0
DWIDTH 6 0
BBX 6 5 0 0
BITMAP
F0
18
18
18
EC
ENDCHAR
STARTCHAR HEBREW
ENCODING -1
SWIDTH 480 0
DWIDTH 6 0
BBX 6 5 0 0
BITMAP
FC
18
18
18
18
ENDCHAR
STARTCHAR HEBREW
ENCODING -1
SWIDTH 480 0
DWIDTH 6 0
BBX 6 5 0 0
BITMAP
F8
0C
CC
CC
CC
ENDCHAR
STARTCHAR HEBREW
ENCODING -1
SWIDTH 480 0
DWIDTH 6 0
BBX 2 5 2 0
BITMAP
C0
C0
C0
C0
C0
ENDCHAR
STARTCHAR HEBREW
ENCODING -1
SWIDTH 480 0
DWIDTH 6 0
BBX 6 5 0 0
BITMAP
FC
0C
18
30
30
ENDCHAR
STARTCHAR HEBREW
ENCODING -1
SWIDTH 480 0
DWIDTH 6 0
BBX 6 5 0 0
BITMAP
F8
CC
CC
CC
CC
ENDCHAR
STARTCHAR HEBREW
ENCODING -1
SWIDTH 480 0
DWIDTH 6 0
BBX 6 5 0 0
BITMAP
D8
CC
CC
CC
78
ENDCHAR
STARTCHAR HEBREW
ENCODING -1
SWIDTH 480 0
DWIDTH 6 0
BBX 2 3 2 2
BITMAP
C0
C0
C0
ENDCHAR
STARTCHAR HEBREW
ENCODING -1
SWIDTH 480 0
DWIDTH 6 0
BBX 6 7 0 -2
BITMAP
F8
0C
0C
0C
0C
0C
0C
ENDCHAR
STARTCHAR HEBREW
ENCODING -1
SWIDTH 480 0
DWIDTH 6 0
BBX 6 5 0 0
BITMAP
F8
0C
0C
0C
F8
ENDCHAR
STARTCHAR HEBREW
ENCODING -1
SWIDTH 480 0
DWIDTH 6 0
BBX 6 6 0 0
BITMAP
C0
FC
0C
18
30
60
ENDCHAR
STARTCHAR HEBREW
ENCODING -1
SWIDTH 480 0
DWIDTH 6 0
BBX 6 5 0 0
BITMAP
F8
CC
CC
CC
FC
ENDCHAR
STARTCHAR HEBREW
ENCODING -1
SWIDTH 480 0
DWIDTH 6 0
BBX 6 5 0 0
BITMAP
D8
6C
6C
CC
DC
ENDCHAR
STARTCHAR HEBREW
ENCODING -1
SWIDTH 480 0
DWIDTH 6 0
BBX 2 7 2 -2
BITMAP
C0
C0
C0
C0
C0
C0
C0
ENDCHAR
STARTCHAR HEBREW
ENCODING -1
SWIDTH 480 0
DWIDTH 6 0
BBX 6 5 0 0
BITMAP
F8
0C
0C
0C
FC
ENDCHAR
STARTCHAR HEBREW
ENCODING -1
SWIDTH 480 0
DWIDTH 6 0
BBX 6 5 0 0
BITMAP
F8
CC
CC
CC
78
ENDCHAR
STARTCHAR HEBREW
ENCODING -1
SWIDTH 480 0
DWIDTH 6 0
BBX 6 5 0 0
BITMAP
CC
CC
6C
6C
F8
ENDCHAR
STARTCHAR HEBREW
ENCODING -1
SWIDTH 480 0
DWIDTH 6 0
BBX 6 7 0 -2
BITMAP
F8
CC
6C
0C
0C
0C
0C
ENDCHAR
STARTCHAR HEBREW
ENCODING -1
SWIDTH 480 0
DWIDTH 6 0
BBX 6 5 0 0
BITMAP
F8
CC
6C
0C
F8
ENDCHAR
STARTCHAR HEBREW
ENCODING -1
SWIDTH 480 0
DWIDTH 6 0
BBX 6 7 0 -2
BITMAP
CC
6C
38
30
30
30
30
ENDCHAR
STARTCHAR HEBREW
ENCODING -1
SWIDTH 480 0
DWIDTH 6 0
BBX 6 5 0 0
BITMAP
CC
6C
38
18
FC
ENDCHAR
STARTCHAR HEBREW
ENCODING -1
SWIDTH 480 0
DWIDTH 6 0
BBX 6 7 0 -2
BITMAP
FC
0C
CC
D8
D0
C0
C0
ENDCHAR
STARTCHAR HEBREW
ENCODING -1
SWIDTH 480 0
DWIDTH 6 0
BBX 6 5 0 0
BITMAP
F8
0C
0C
0C
0C
ENDCHAR
STARTCHAR HEBREW
ENCODING -1
SWIDTH 480 0
DWIDTH 6 0
BBX 6 5 0 0
BITMAP
DC
DC
EC
CC
F8
ENDCHAR
STARTCHAR HEBREW
ENCODING -1
SWIDTH 480 0
DWIDTH 6 0
BBX 6 5 0 0
BITMAP
F8
6C
6C
6C
CC
ENDCHAR
STARTCHAR LATIN
ENCODING -1
SWIDTH 480 0
DWIDTH 6 0
BBX 6 10 0 0
BITMAP
30
30
00
F8
CC
CC
F8
CC
CC
F8
ENDCHAR
STARTCHAR LATIN
ENCODING -1
SWIDTH 480 0
DWIDTH 6 0
BBX 6 10 0 0
BITMAP
C0
C0
00
C0
C0
F8
CC
CC
CC
F8
ENDCHAR
STARTCHAR LATIN
ENCODING -1
SWIDTH 480 0
DWIDTH 6 0
BBX 6 10 0 0
BITMAP
30
30
00
F8
CC
CC
CC
CC
CC
F8
ENDCHAR
STARTCHAR LATIN
ENCODING -1
SWIDTH 480 0
DWIDTH 6 0
BBX 6 10 0 0
BITMAP
0C
0C
00
0C
0C
7C
CC
CC
CC
7C
ENDCHAR
STARTCHAR LATIN
ENCODING -1
SWIDTH 480 0
DWIDTH 6 0
BBX 6 10 0 0
BITMAP
30
30
00
FC
C0
C0
F0
C0
C0
C0
ENDCHAR
STARTCHAR LATIN
ENCODING -1
SWIDTH 480 0
DWIDTH 6 0
BBX 4 10 1 0
BITMAP
60
60
00
70
C0
C0
E0
C0
C0
C0
ENDCHAR
STARTCHAR LATIN
ENCODING -1
SWIDTH 480 0
DWIDTH 6 0
BBX 6 10 0 0
BITMAP
30
30
00
CC
FC
FC
CC
CC
CC
CC
ENDCHAR
STARTCHAR LATIN
ENCODING -1
SWIDTH 480 0
DWIDTH 6 0
BBX 6 8 0 0
BITMAP
30
30
00
C8
FC
FC
FC
CC
ENDCHAR
STARTCHAR LATIN
ENCODING -1
SWIDTH 480 0
DWIDTH 6 0
BBX 6 10 0 0
BITMAP
30
30
00
F8
CC
CC
CC
F8
C0
C0
ENDCHAR
STARTCHAR LATIN
ENCODING -1
SWIDTH 480 0
DWIDTH 6 0
BBX 6 10 0 -2
BITMAP
30
30
00
F8
CC
CC
CC
F8
C0
C0
ENDCHAR
STARTCHAR LATIN
ENCODING -1
SWIDTH 480 0
DWIDTH 6 0
BBX 6 10 0 0
BITMAP
30
30
00
7C
C0
C0
78
0C
0C
F8
ENDCHAR
STARTCHAR LATIN
ENCODING -1
SWIDTH 480 0
DWIDTH 6 0
BBX 6 8 0 0
BITMAP
30
30
00
7C
C0
78
0C
F8
ENDCHAR
STARTCHAR LATIN
ENCODING -1
SWIDTH 480 0
DWIDTH 6 0
BBX 6 10 0 0
BITMAP
30
30
00
FC
30
30
30
30
30
30
ENDCHAR
STARTCHAR LATIN
ENCODING -1
SWIDTH 480 0
DWIDTH 6 0
BBX 5 10 0 0
BITMAP
60
60
00
60
60
60
F0
60
60
38
ENDCHAR
STARTCHAR LATIN
ENCODING -1
SWIDTH 480 0
DWIDTH 6 0
BBX 6 10 0 0
BITMAP
60
30
00
CC
CC
CC
CC
FC
FC
CC
ENDCHAR
STARTCHAR LATIN
ENCODING -1
SWIDTH 480 0
DWIDTH 6 0
BBX 6 8 0 0
BITMAP
60
30
00
CC
CC
FC
FC
CC
ENDCHAR
STARTCHAR LATIN
ENCODING -1
SWIDTH 480 0
DWIDTH 6 0
BBX 6 10 0 0
BITMAP
18
30
00
CC
CC
CC
CC
FC
FC
CC
ENDCHAR
STARTCHAR LATIN
ENCODING -1
SWIDTH 480 0
DWIDTH 6 0
BBX 6 8 0 0
BITMAP
18
30
00
CC
CC
FC
FC
CC
ENDCHAR
STARTCHAR LATIN
ENCODING -1
SWIDTH 480 0
DWIDTH 6 0
BBX 6 10 0 0
BITMAP
CC
CC
00
CC
CC
CC
CC
FC
FC
CC
ENDCHAR
STARTCHAR LATIN
ENCODING -1
SWIDTH 480 0
DWIDTH 6 0
BBX 6 8 0 0
BITMAP
CC
CC
00
CC
CC
FC
FC
CC
ENDCHAR
STARTCHAR LATIN
ENCODING -1
SWIDTH 480 0
DWIDTH 6 0
BBX 6 10 0 0
BITMAP
60
30
00
CC
CC
78
30
30
30
30
ENDCHAR
STARTCHAR LATIN
ENCODING -1
SWIDTH 480 0
DWIDTH 6 0
BBX 6 10 0 -2
BITMAP
60
30
00
CC
CC
CC
CC
7C
0C
78
ENDCHAR
STARTCHAR HORIZONTAL
ENCODING -1
SWIDTH 480 0
DWIDTH 6 0
BBX 6 2 0 2
BITMAP
FC
FC
ENDCHAR
STARTCHAR DOUBLE
ENCODING -1
SWIDTH 480 0
DWIDTH 6 0
BBX 6 5 0 -2
BITMAP
FC
FC
00
FC
FC
ENDCHAR
STARTCHAR LEFT
ENCODING -1
SWIDTH 480 0
DWIDTH 6 0
BBX 3 3 2 6
BITMAP
60
C0
C0
ENDCHAR
STARTCHAR RIGHT
ENCODING -1
SWIDTH 480 0
DWIDTH 6 0
BBX 3 3 1 6
BITMAP
60
60
C0
ENDCHAR
STARTCHAR SINGLE
ENCODING -1
SWIDTH 480 0
DWIDTH 6 0
BBX 3 3 2 6
BITMAP
C0
C0
60
ENDCHAR
STARTCHAR LEFT
ENCODING -1
SWIDTH 480 0
DWIDTH 6 0
BBX 6 3 0 6
BITMAP
6C
D8
D8
ENDCHAR
STARTCHAR RIGHT
ENCODING -1
SWIDTH 480 0
DWIDTH 6 0
BBX 6 3 0 6
BITMAP
6C
6C
D8
ENDCHAR
STARTCHAR DOUBLE
ENCODING -1
SWIDTH 480 0
DWIDTH 6 0
BBX 6 3 0 -2
BITMAP
6C
6C
D8
ENDCHAR
STARTCHAR DOUBLE
ENCODING -1
SWIDTH 480 0
DWIDTH 6 0
BBX 6 3 0 6
BITMAP
D8
D8
6C
ENDCHAR
STARTCHAR EURO
ENCODING -1
SWIDTH 480 0
DWIDTH 6 0
BBX 6 7 0 0
BITMAP
3C
60
F8
60
F8
60
3C
ENDCHAR
STARTCHAR DRACHMA
ENCODING -1
SWIDTH 480 0
DWIDTH 6 0
BBX 6 9 0 -2
BITMAP
F0
D8
D8
DC
D4
DC
F8
30
30
ENDCHAR
STARTCHAR HRYVNIA
ENCODING -1
SWIDTH 480 0
DWIDTH 6 0
BBX 6 7 0 0
BITMAP
F8
0C
FC
78
FC
C0
7C
ENDCHAR
STARTCHAR RUBLE
ENCODING -1
SWIDTH 480 0
DWIDTH 6 0
BBX 6 7 0 0
BITMAP
F8
CC
CC
F8
C0
F8
C0
ENDCHAR
STARTCHAR NUMERO
ENCODING -1
SWIDTH 480 0
DWIDTH 6 0
BBX 6 7 0 0
BITMAP
D8
D8
FC
F4
FC
D0
DC
ENDCHAR
STARTCHAR Private
ENCODING -1
SWIDTH 480 0
DWIDTH 6 0
BBX 6 8 0 0
BITMAP
C0
C0
C0
CC
D8
DC
F8
6C
ENDCHAR
STARTCHAR char57345
ENCODING -1
SWIDTH 480 0
DWIDTH 6 0
BBX 6 5 0 0
BITMAP
CC
78
F8
18
CC
ENDCHAR
STARTCHAR char57346
ENCODING -1
SWIDTH 480 0
DWIDTH 6 0
BBX 6 7 0 -2
BITMAP
EC
78
78
78
EC
60
C0
ENDCHAR
STARTCHAR char57347
ENCODING -1
SWIDTH 480 0
DWIDTH 6 0
BBX 6 10 0 -2
BITMAP
0C
0C
00
FC
6C
6C
6C
EC
60
C0
ENDCHAR
STARTCHAR char57348
ENCODING -1
SWIDTH 480 0
DWIDTH 6 0
BBX 6 5 0 0
BITMAP
78
CC
FC
C0
78
ENDCHAR
STARTCHAR char57349
ENCODING -1
SWIDTH 480 0
DWIDTH 6 0
BBX 6 7 0 0
BITMAP
FC
CC
00
30
00
CC
78
ENDCHAR
STARTCHAR REPLACEMENT
ENCODING -1
SWIDTH 480 0
DWIDTH 6 0
BBX 6 11 0 -2
BITMAP
30
78
8C
E4
E4
CC
DC
FC
CC
78
30
ENDCHAR
STARTCHAR UNIMPLEMENTED
ENCODING -1
SWIDTH 480 0
DWIDTH 6 0
BBX 6 10 0 -1
BITMAP
FC
FC
FC
FC
FC
FC
FC
FC
FC
FC
ENDCHAR
ENDFONT
